<!DOCTYPE svg PUBLIC "-//W3C//DTD SVG 1.1//EN" "http://www.w3.org/Graphics/SVG/1.1/DTD/svg11.dtd"><svg width="48" height="43"><g fill="#FFF" fill-rule="nonzero"><path d="M13.7094254 17.2097506H4.64516129v20.2811791h9.06426411c2.030746 1.4663938 4.5105847 2.3401361 7.1938004 2.3401361s5.1630544-.8737423 7.1938005-2.3401361h9.064264V17.2097506h-9.064264c-2.0307461-1.4663938-4.5105848-2.3401361-7.1938005-2.3401361s-5.1630544.8737423-7.1938004 2.3401361zm-7.51587701 1.5600907h5.73765111c-2.11050895 2.2388216-3.41507047 5.2557841-3.41507047 8.5804988 0 3.3247148 1.30456152 6.3416773 3.41507047 8.5804989H6.19354839V18.7698413zm3.87096771 8.5804988c0-6.0221177 4.8617692-10.9206349 10.8387097-10.9206349 5.9769406 0 10.8387097 4.8985172 10.8387097 10.9206349 0 6.0221178-4.8617691 10.920635-10.8387097 10.920635-5.9769405 0-10.8387097-4.8985172-10.8387097-10.920635zm25.5483871 8.5804989h-5.7376511c2.110509-2.2388216 3.4150705-5.2557841 3.4150705-8.5804989 0-3.3247147-1.3045615-6.3416772-3.4150705-8.5804988h5.7376511V35.930839z"/><path d="M20.9032258 17.9897959c-2.1683468 0-4.2788559.7697615-5.9444304 2.1691203l.9919355 1.1974915c1.1877519-.9975287 2.6484374-1.607701 4.1775454-1.7634815v2.2970965h1.5483871v-2.3005244c3.6517136.3675506 6.5643901 3.301481 6.9284274 6.9807965h-2.2825102v1.5600907h2.279864c-.1546119 1.5414275-.7602067 3.0131537-1.7502521 4.2091217l1.1885081.9990521c1.3888609-1.6770212 2.1528478-3.8034828 2.1528478-5.9882192 0-5.1617063-4.1673387-9.3605442-9.2903226-9.3605442zM21.6774194 35.1077541v-2.2970965h-1.5483871v2.3005244c-3.6517138-.3675507-6.5643901-3.301481-6.9284275-6.9807965h2.2832662v-1.5600907h-2.279864c.1546119-1.5414275.7602067-3.0131537 1.7502521-4.2091217l-1.1885081-.9990522c-1.3888609 1.6770213-2.1528478 3.8034828-2.1528478 5.9882192 0 5.1617064 4.1673387 9.3605443 9.2903226 9.3605443 2.1683468 0 4.2788559-.7697616 5.9444304-2.1691203l-.9919355-1.1974915c-1.1877519.9967669-2.6484374 1.6077009-4.1783013 1.7634815z"/><path d="M20.1290323 23.4501134v4.6802721h3.0967742v-1.5600907h-1.5483871v-3.1201814z"/><path d="M40.2580645 41.3911565H1.5483871V13.3095238h38.7096774v4.6802721h1.5483871V7.84920635c0-2.15045711-1.7366431-3.90022676-3.8709677-3.90022676h-3.0967742v-1.5600907c0-1.29004573-1.0422127-2.34013606-2.3225807-2.34013606-1.2803679 0-2.3225806 1.05009033-2.3225806 2.34013606v1.5600907h-3.0967742v-1.5600907c0-1.29004573-1.0422127-2.34013606-2.3225807-2.34013606-1.2803679 0-2.3225806 1.05009033-2.3225806 2.34013606v1.5600907h-3.0967742v-1.5600907c0-1.29004573-1.0422127-2.34013606-2.3225806-2.34013606-1.280368 0-2.3225807 1.05009033-2.3225807 2.34013606v1.5600907h-3.0967742v-1.5600907c0-1.29004573-1.0422127-2.34013606-2.32258062-2.34013606-1.28036797 0-2.32258064 1.05009033-2.32258064 2.34013606v1.5600907h-3.0967742C1.7366431 3.94897959 0 5.69874924 0 7.84920635V42.9512472h41.8064516v-7.8004535h-1.5483871v6.2403628zm-8.516129-39.00226761c0-.43039607.3470262-.78004535.7741935-.78004535.4271673 0 .7741936.34964928.7741936.78004535V7.069161c0 .43039607-.3470263.78004535-.7741936.78004535s-.7741935-.34964928-.7741935-.78004535V2.38888889zm-7.7419355 0c0-.43039607.3470263-.78004535.7741935-.78004535.4271673 0 .7741936.34964928.7741936.78004535V7.069161c0 .43039607-.3470263.78004535-.7741936.78004535C24.3470263 7.84920635 24 7.49955707 24 7.069161V2.38888889zm-7.7419355 0c0-.43039607.3470263-.78004535.7741936-.78004535s.7741935.34964928.7741935.78004535V7.069161c0 .43039607-.3470262.78004535-.7741935.78004535-.4271673 0-.7741936-.34964928-.7741936-.78004535V2.38888889zm-7.74193547 0c0-.43039607.34702626-.78004535.77419355-.78004535.42716729 0 .77419352.34964928.77419352.78004535V7.069161c0 .43039607-.34702623.78004535-.77419352.78004535s-.77419355-.34964928-.77419355-.78004535V2.38888889zm-4.64516129 3.1201814h3.0967742V7.069161c0 1.29004573 1.04221267 2.34013605 2.32258064 2.34013605 1.28036792 0 2.32258062-1.05009032 2.32258062-2.34013605V5.50907029h3.0967742V7.069161c0 1.29004573 1.0422127 2.34013605 2.3225807 2.34013605 1.2803679 0 2.3225806-1.05009032 2.3225806-2.34013605V5.50907029h3.0967742V7.069161c0 1.29004573 1.0422127 2.34013605 2.3225806 2.34013605 1.280368 0 2.3225807-1.05009032 2.3225807-2.34013605V5.50907029h3.0967742V7.069161c0 1.29004573 1.0422127 2.34013605 2.3225806 2.34013605 1.280368 0 2.3225807-1.05009032 2.3225807-2.34013605V5.50907029h3.0967742c1.2803679 0 2.3225806 1.05009033 2.3225806 2.34013606v3.90022675H1.5483871V7.84920635c0-1.29004573 1.04221267-2.34013606 2.32258064-2.34013606zM46.4516129 19.5498866H48v1.5600907h-1.5483871z"/><path d="M38.7096774 19.5498866h6.1935484v1.5600907h-6.1935484zM46.4516129 22.670068H48v1.5600907h-1.5483871zM38.7096774 22.670068h6.1935484v1.5600907h-6.1935484zM46.4516129 25.7902494H48v1.5600907h-1.5483871zM38.7096774 25.7902494h6.1935484v1.5600907h-6.1935484zM46.4516129 28.9104308H48v1.5600907h-1.5483871zM38.7096774 28.9104308h6.1935484v1.5600907h-6.1935484zM46.4516129 32.0306122H48v1.5600907h-1.5483871zM38.7096774 32.0306122h6.1935484v1.5600907h-6.1935484z"/></g></svg>