<!DOCTYPE svg PUBLIC "-//W3C//DTD SVG 1.1//EN" "http://www.w3.org/Graphics/SVG/1.1/DTD/svg11.dtd"><svg width="32px" height="32px" viewBox="0 0 32 32" version="1.1" xmlns="http://www.w3.org/2000/svg" xmlns:xlink="http://www.w3.org/1999/xlink"><g id="Page-1" stroke="none" stroke-width="1" fill="none" fill-rule="evenodd"><g id="Desktop" transform="translate(-955.000000, -5874.000000)"><g id="Group-9" transform="translate(955.000000, 5874.000000)"><rect id="Rectangle" stroke="#FFFFFF" x="0.5" y="0.5" width="31" height="31" rx="15.5"></rect><g id="twitter" transform="translate(10.000000, 11.000000)" fill="#FFFFFF" fill-rule="nonzero"><path d="M12,1.18384615 C11.55375,1.38461538 11.07825,1.51769231 10.5825,1.58230769 C11.0925,1.27 11.48175,0.779230769 11.66475,0.187692308 C11.18925,0.478461538 10.66425,0.683846154 10.10475,0.798461538 C9.65325,0.305384615 9.00975,0 8.30775,0 C6.94575,0 5.84925,1.13384615 5.84925,2.52384615 C5.84925,2.72384615 5.86575,2.91615385 5.90625,3.09923077 C3.861,2.99692308 2.05125,1.99153846 0.8355,0.46 C0.62325,0.837692308 0.49875,1.27 0.49875,1.73538462 C0.49875,2.60923077 0.9375,3.38384615 1.5915,3.83230769 C1.19625,3.82461538 0.8085,3.70692308 0.48,3.52153846 C0.48,3.52923077 0.48,3.53923077 0.48,3.54923077 C0.48,4.77538462 1.33275,5.79384615 2.451,6.02846154 C2.25075,6.08461538 2.0325,6.11153846 1.806,6.11153846 C1.6485,6.11153846 1.4895,6.10230769 1.34025,6.06846154 C1.659,7.06769231 2.5635,7.80230769 3.639,7.82615385 C2.802,8.49769231 1.73925,8.90230769 0.58875,8.90230769 C0.387,8.90230769 0.1935,8.89307692 -5.68434189e-14,8.86769231 C1.08975,9.58846154 2.38125,10 3.774,10 C8.301,10 10.776,6.15384615 10.776,2.82 C10.776,2.70846154 10.77225,2.60076923 10.767,2.49384615 C11.25525,2.13846154 11.6655,1.69461538 12,1.18384615 Z" id="Shape"></path></g></g></g></g></svg>