<svg width="32px" height="32px" viewBox="0 0 32 32" version="1.1" xmlns="http://www.w3.org/2000/svg" xmlns:xlink="http://www.w3.org/1999/xlink"><g stroke="none" stroke-width="1" fill="none" fill-rule="evenodd"><g transform="translate(-1084.000000, -5874.000000)"><g transform="translate(1084.000000, 5874.000000)"><path d="M15.9967457,20.1968814 C14.1755058,20.1968814 12.4448778,18.6828071 12.5215956,16.7709773 C12.5355821,16.4218738 12.7450097,16.1566419 13.121767,16.1566419 C13.4636274,16.1566419 13.72877,16.42889 13.72877,16.7637303 C13.7427565,18.0058796 14.7544898,19.0105849 15.9967457,19.0105849 C17.2456949,19.0105849 18.2574281,18.0058796 18.2714608,16.7637303 C18.2714608,16.42889 18.5363264,16.1566419 18.8783715,16.1566419 C19.2552211,16.1566419 19.4645564,16.4218738 19.4784505,16.7709773 C19.5551222,18.6828071 17.8248173,20.1968814 15.9967457,20.1968814 Z M15.7035379,16.0870797 L14.5382767,14.9217396 L14.3287568,14.7192384 C14.1474406,14.530908 14.1056197,14.2588907 14.2032479,14.0355716 C14.2311747,13.9658709 14.2731341,13.9028633 14.3287568,13.8470566 L15.7035379,12.472476 C15.9407537,12.2353552 16.3314975,12.2353552 16.5689442,12.472476 C16.8058831,12.7098738 16.8058831,13.1004746 16.5689442,13.3379647 L15.6268201,14.2798009 L16.5689442,15.2216372 C16.8058831,15.4589427 16.8058831,15.8497281 16.5689442,16.0870335 C16.3314975,16.3245236 15.9407537,16.3245236 15.7035379,16.0870797 Z M11.9983267,14.0983484 C11.9983267,14.4333732 11.7191976,14.7053444 11.3842612,14.7053444 C11.0424008,14.7053444 10.770288,14.4333271 10.770288,14.0983484 L10.770288,12.1515298 C10.770288,11.8166895 11.0424008,11.5375636 11.3842612,11.5375636 C11.7191976,11.5375636 11.9983267,11.8166895 11.9983267,12.1515298 L11.9983267,14.0983484 Z M20.0019041,14.0983484 L20.0019041,12.1515298 C20.0019041,11.8166895 20.2810332,11.5375636 20.6160619,11.5375636 C20.950906,11.5375636 21.2298505,11.8166895 21.2298505,12.1515298 L21.2298505,14.0983484 C21.2298505,14.4333732 20.950906,14.7053444 20.6160619,14.7053444 C20.2810332,14.7053444 20.0019041,14.4333271 20.0019041,14.0983484 Z M8,15.9964688 C8,20.4199235 11.5796562,24 15.9967457,24 C20.4204362,24 24,20.4199235 24,15.9964688 C24,11.5794302 20.4204362,8 15.9967457,8 C11.57961,7.99995384 8,11.5793841 8,15.9964688 Z" fill="#FFFFFF"></path><rect stroke="#FFFFFF" x="0.5" y="0.5" width="31" height="31" rx="15.5"></rect></g></g></g></svg>