<svg version="1.1" xmlns="http://www.w3.org/2000/svg" xmlns:xlink="http://www.w3.org/1999/xlink" x="0px" y="0px" viewBox="0 0 2353.1 580" style="enable-background:new 0 0 2353.1 580" xml:space="preserve"><style>.letter{fill:#FFF}.custom-class{fill:none;stroke:#FFF;stroke-width:25;stroke-miterlimit:10}</style><g><path class="letter" d="M968.9,171.3h45.3V403h-45.3v-96h-86.1v96h-45.7V171.3h45.7v92h86.1V171.3z"/><path class="letter" d="M1076.5,217.7c-7.1,0-13.2-2.6-18.4-7.8c-5.2-5.2-7.8-11.3-7.8-18.4c0-7.1,2.6-13.2,7.8-18.5
		c5.2-5.3,11.3-7.9,18.4-7.9c7.3,0,13.5,2.6,18.7,7.9c5.2,5.3,7.8,11.5,7.8,18.5c0,7.1-2.6,13.2-7.8,18.4
		C1090,215.1,1083.8,217.7,1076.5,217.7z M1055.3,403V237.5h42.7V403H1055.3z"/><path class="letter" d="M1262.5,171.3h42.7V403h-42.7v-19.5c-12.6,16.1-30.4,24.2-53.6,24.2c-22.3,0-41.3-8.4-57.1-25.3
		c-15.8-16.9-23.7-37.6-23.7-62.1c0-24.5,7.9-45.2,23.7-62.1c15.8-16.9,34.8-25.3,57.1-25.3c23.2,0,41,8.1,53.6,24.2V171.3z
		 M1183.9,353.9c8.7,8.7,19.7,13.1,32.9,13.1s24.2-4.4,32.8-13.1c8.6-8.7,12.9-19.9,12.9-33.6c0-13.7-4.3-24.9-12.9-33.6
		c-8.6-8.7-19.5-13.1-32.8-13.1s-24.2,4.4-32.9,13.1c-8.7,8.7-13.1,19.9-13.1,33.6C1170.8,334,1175.2,345.2,1183.9,353.9z"/><path class="letter" d="M1469.7,171.3h42.7V403h-42.7v-19.5c-12.6,16.1-30.4,24.2-53.6,24.2c-22.3,0-41.3-8.4-57.1-25.3
		c-15.8-16.9-23.7-37.6-23.7-62.1c0-24.5,7.9-45.2,23.7-62.1c15.8-16.9,34.8-25.3,57.1-25.3c23.2,0,41,8.1,53.6,24.2V171.3z
		 M1391.1,353.9c8.7,8.7,19.7,13.1,32.9,13.1s24.2-4.4,32.8-13.1c8.6-8.7,12.9-19.9,12.9-33.6c0-13.7-4.3-24.9-12.9-33.6
		c-8.6-8.7-19.5-13.1-32.8-13.1s-24.2,4.4-32.9,13.1c-8.7,8.7-13.1,19.9-13.1,33.6C1378,334,1382.3,345.2,1391.1,353.9z"/><path class="letter" d="M1587.5,337.8c5.7,20.7,21.3,31.1,46.7,31.1c16.3,0,28.7-5.5,37.1-16.5l34.4,19.9
		c-16.3,23.6-40.4,35.4-72.2,35.4c-27.4,0-49.3-8.3-65.9-24.8c-16.5-16.5-24.8-37.4-24.8-62.6c0-24.9,8.2-45.7,24.5-62.4
		c16.3-16.7,37.3-25,62.9-25c24.3,0,44.3,8.4,60.1,25.2c15.8,16.8,23.7,37.5,23.7,62.2c0,5.5-0.6,11.4-1.7,17.5H1587.5z
		 M1586.8,304.7h84.4c-2.4-11.3-7.4-19.6-15.1-25.2c-7.6-5.5-16.3-8.3-26-8.3c-11.5,0-21,2.9-28.5,8.8
		C1594.2,285.9,1589.2,294.1,1586.8,304.7z"/><path class="letter" d="M1835.7,232.9c18.1,0,33,6.1,44.8,18.2c11.8,12.1,17.7,28.9,17.7,50.3V403h-42.7v-96.3c0-11-3-19.5-8.9-25.3
		c-6-5.8-13.9-8.8-23.8-8.8c-11,0-19.9,3.4-26.5,10.3c-6.6,6.8-9.9,17.1-9.9,30.8V403h-42.7V237.5h42.7v18.5
		C1796.8,240.6,1813.2,232.9,1835.7,232.9z"/></g><g><path class="letter" d="M2078.8,282.9c20.3,11.7,30.4,29.3,30.4,53c0,19.6-7,35.7-20.9,48.3c-13.9,12.6-31,18.9-51.3,18.9h-98.3V171.3
		h91.3c19.9,0,36.6,6.1,50.1,18.4c13.6,12.2,20.4,27.9,20.4,46.8C2100.6,255.7,2093.3,271.2,2078.8,282.9z M2030.1,214h-45.7v51
		h45.7c7.1,0,13-2.4,17.7-7.3c4.7-4.9,7.1-10.9,7.1-18.2c0-7.3-2.3-13.3-7-18.2C2043.4,216.5,2037.4,214,2030.1,214z M2037.1,360.3
		c7.7,0,14.1-2.6,19.2-7.8c5.1-5.2,7.6-11.7,7.6-19.7c0-7.7-2.5-14.2-7.6-19.4c-5.1-5.2-11.5-7.8-19.2-7.8h-52.6v54.6H2037.1z"/><path class="letter" d="M2158.2,217.7c-7.1,0-13.2-2.6-18.4-7.8c-5.2-5.2-7.8-11.3-7.8-18.4c0-7.1,2.6-13.2,7.8-18.5
		c5.2-5.3,11.3-7.9,18.4-7.9c7.3,0,13.5,2.6,18.7,7.9c5.2,5.3,7.8,11.5,7.8,18.5c0,7.1-2.6,13.2-7.8,18.4
		C2171.7,215.1,2165.5,217.7,2158.2,217.7z M2137,403V237.5h42.7V403H2137z"/><path class="letter" d="M2313.4,278.6H2276v68.8c0,5.7,1.4,9.9,4.3,12.6c2.9,2.6,7.1,4.1,12.6,4.5c5.5,0.3,12.4,0.3,20.5-0.2V403
		c-29.3,3.3-50,0.5-62.1-8.3c-12-8.8-18-24.6-18-47.3v-68.8h-28.8v-41h28.8v-33.4l42.7-12.9v46.3h37.4V278.6z"/></g><g><path class="custom-class" d="M423,337.6H135.5v209.5H35.9V41.5h99.7v200.8H423"/></g><g><path class="custom-class" d="M703.9,400.5 M336.5,547.2V401.1 M336.4,187.5V41.5"/></g><path class="custom-class" d="M324,41.5h199.4c43.3,0,79.8,13.4,109.4,40.1c29.6,26.7,44.4,60.8,44.4,102.2c0,41.9-15.9,75.6-47.7,101.1
	c44.3,25.5,66.5,64,66.5,115.6c0,42.9-15.2,78-45.5,105.5c-30.3,27.4-67.7,41.2-112,41.2H324"/><path class="custom-class" d="M523.3,134.6h-99.7v107.6h99.7c15.4,0,28.3-1.7,38.6-12.3c10.3-10.6,15.5-23.8,15.5-39.7
	c0-15.9-5.1-29.1-15.2-39.7C552.2,139.9,539.2,134.6,523.3,134.6z"/><path class="custom-class" d="M538.5,453.9c16.9,0,30.8-5.7,41.9-17c11.1-11.3,16.6-25.6,16.6-43c0-16.9-5.5-30.9-16.6-42.3
	c-11.1-11.3-25-14.1-41.9-14.1H423.7v116.3H538.5z"/></svg>