<!DOCTYPE svg PUBLIC "-//W3C//DTD SVG 1.1//EN" "http://www.w3.org/Graphics/SVG/1.1/DTD/svg11.dtd"><svg version="1.1" id="Слой_1" height="110px" xmlns="http://www.w3.org/2000/svg" xmlns:xlink="http://www.w3.org/1999/xlink" x="0px" y="0px" viewBox="0 0 510 363.6" style="enable-background:new 0 0 510 363.6" xml:space="preserve"><style>.st0{fill:#fff;stroke:#FFF;stroke-width:3}</style><g><path class="st0" d="M151.6,93h47.7v243.8h-47.7v-101H61.1v101H13V93h48.1v96.8h90.6V93z"/></g><g><path class="st0" d="M244.6,93h48.1v243.8h-48.1V93z"/></g><g><path class="st0" d="M499.3,93v46h-65.8v197.8h-48.1V139h-65.5V93H499.3z"/></g><g><path class="st0" d="M161.6,103h27.7v223.8h-27.7v-101H51.1v101H23V103h28.1v96.8h110.6V103z"/></g><g><path class="st0" d="M254.6,103h28.1v223.8h-28.1V103z"/></g><g><path class="st0" d="M489.3,103v26h-65.8v197.8h-28.1V129h-65.5v-26H489.3z"/></g><path class="st0" d="M280.2,54.6l-29.9-29.9c-1.9-1.9-1.9-5,0-6.9l0,0c1.9-1.9,5-1.9,6.9,0l29.9,29.9c1.9,1.9,1.9,5,0,6.9v0
	C285.2,56.5,282.1,56.5,280.2,54.6z"/><path class="st0" d="M250.5,47.9L280.4,18c1.9-1.9,5-1.9,6.9,0v0c1.9,1.9,1.9,5,0,6.9l-29.9,29.9c-1.9,1.9-5,1.9-6.9,0v0
	C248.6,52.9,248.6,49.8,250.5,47.9z"/></svg>