<!DOCTYPE svg PUBLIC "-//W3C//DTD SVG 1.1//EN" "http://www.w3.org/Graphics/SVG/1.1/DTD/svg11.dtd"><svg width="32px" height="32px" viewBox="0 0 32 32" version="1.1" xmlns="http://www.w3.org/2000/svg" xmlns:xlink="http://www.w3.org/1999/xlink"><g id="Page-1" stroke="none" stroke-width="1" fill="none" fill-rule="evenodd"><g id="Desktop" transform="translate(-1041.000000, -5874.000000)"><g id="Group-10" transform="translate(1041.000000, 5874.000000)"><g id="linkedin" transform="translate(10.000000, 9.000000)" fill="#FFFFFF" fill-rule="nonzero"><rect id="Rectangle-path" x="0" y="3.75" width="2.6835" height="8.25"></rect><path d="M9.993,3.84675 C9.9645,3.83775 9.9375,3.828 9.9075,3.81975 C9.8715,3.8115 9.8355,3.80475 9.79875,3.79875 C9.65625,3.77025 9.50025,3.75 9.31725,3.75 C7.75275,3.75 6.7605,4.88775 6.4335,5.32725 L6.4335,3.75 L3.75,3.75 L3.75,12 L6.4335,12 L6.4335,7.5 C6.4335,7.5 8.4615,4.6755 9.31725,6.75 C9.31725,8.60175 9.31725,12 9.31725,12 L12,12 L12,6.43275 C12,5.18625 11.14575,4.1475 9.993,3.84675 Z" id="Shape"></path><circle id="Oval" cx="1.3125" cy="1.3125" r="1.3125"></circle></g><rect id="Rectangle-Copy-2" stroke="#FFFFFF" x="0.5" y="0.5" width="31" height="31" rx="15.5"></rect></g></g></g></svg>