<!DOCTYPE svg PUBLIC "-//W3C//DTD SVG 1.1//EN" "http://www.w3.org/Graphics/SVG/1.1/DTD/svg11.dtd"><svg version="1.1" id="Слой_1" xmlns="http://www.w3.org/2000/svg" xmlns:xlink="http://www.w3.org/1999/xlink" x="0px" y="0px" viewBox="0 0 356.5 279" style="enable-background:new 0 0 356.5 279" xml:space="preserve"><style>.unique-class{fill:none;stroke:#FFF;stroke-width:8;stroke-miterlimit:10}</style><g><path class="unique-class" d="M211.2,160.5H70v102.9H21V15h49v98.6h141.2"/></g><g><path class="unique-class" d="M166.3,263.4v-71.7 M166.3,86.7V15"/></g><path class="unique-class" d="M162.2,15h97.9c21.3,0,39.2,6.6,53.8,19.7c14.5,13.1,21.8,29.9,21.8,50.2c0,20.6-7.8,37.1-23.4,49.7
	c21.8,12.5,32.6,31.5,32.6,56.8c0,21.1-7.5,38.3-22.4,51.8s-33.2,20.2-55,20.2H162.2"/><path class="unique-class" d="M260.2,60.8h-49v52.9h49c7.6,0,13.9-0.8,19-6s7.6-11.7,7.6-19.5s-2.5-14.3-7.5-19.5
	C274.3,63.4,268,60.8,260.2,60.8z"/><path class="unique-class" d="M267.6,217.6c8.3,0,15.1-2.8,20.6-8.3c5.4-5.6,8.2-12.6,8.2-21.1c0-8.3-2.7-15.2-8.2-20.8
	c-5.4-5.6-12.3-6.9-20.6-6.9h-56.4v57.1H267.6z"/></svg>