<svg width="10px" height="18px" viewBox="0 0 10 18" version="1.1" xmlns="http://www.w3.org/2000/svg" xmlns:xlink="http://www.w3.org/1999/xlink"><defs><linearGradient x1="0%" y1="0%" x2="101.999998%" y2="100.999999%" id="lgrad-1"><stop stop-color="#3023AE" offset="0%"></stop><stop stop-color="#C86DD7" offset="100%"></stop></linearGradient></defs><g id="Page-1" stroke="none" stroke-width="1" fill="none" fill-rule="evenodd"><g id="Desktop" transform="translate(-883.000000, -198.000000)" fill="url(#lgrad-1)" fill-rule="nonzero"><g id="money" transform="translate(883.000000, 198.000000)"><path d="M9.28173462,10.9584904 C9.1947985,10.6641179 9.08932116,10.4079184 8.96544333,10.1903494 C8.84163588,9.97256932 8.66431573,9.76013698 8.43313108,9.55234873 C8.20222788,9.34466603 7.99451,9.1774081 7.81032925,9.0502583 C7.62625406,8.92300295 7.37339694,8.78072464 7.05189863,8.62324747 C6.73068178,8.46580548 6.47617109,8.34864752 6.28882391,8.2715977 C6.10123046,8.19465342 5.82986731,8.08917608 5.47491038,7.95523605 C5.1602023,7.83477093 4.9258864,7.74266297 4.77171639,7.67908807 C4.61772229,7.6154428 4.41521142,7.52509397 4.16407825,7.40783047 C3.91305063,7.29074288 3.72552754,7.18688394 3.60161453,7.0965351 C3.47773671,7.00618627 3.34552062,6.895713 3.20486071,6.76515049 C3.0642008,6.63458798 2.96544333,6.49561684 2.90848276,6.34830743 C2.85166291,6.20096283 2.82316503,6.04021368 2.82316503,5.86609515 C2.82316503,5.41083271 3.02398713,5.03905851 3.42577206,4.75119474 C3.82759217,4.46333097 4.3466406,4.31932872 4.98284698,4.31932872 C5.2639557,4.31932872 5.5505529,4.35778326 5.84165347,4.43486827 C6.13275404,4.51195328 6.38223363,4.59878386 6.58984596,4.69595811 C6.79763421,4.79313236 6.9934252,4.90029847 7.17764113,5.01742124 C7.36182188,5.13464955 7.4923492,5.22330962 7.56943421,5.28357736 C7.64644885,5.34388029 7.69524707,5.3840236 7.71512523,5.40414802 C7.80230763,5.47110045 7.89248055,5.49449686 7.9862421,5.47447798 C8.08665315,5.46779329 8.16373815,5.41413987 8.21742675,5.31379919 L9.03119955,3.84724902 C9.11152136,3.71337934 9.09491519,3.586124 8.98099403,3.46551815 C8.94074517,3.42533966 8.89071556,3.37851166 8.83002563,3.32489343 C8.7699338,3.27127519 8.63930093,3.17420649 8.43823255,3.0335114 C8.23737527,2.89292185 8.02476701,2.76735527 7.80058368,2.65684682 C7.57615408,2.54644392 7.28477205,2.43421153 6.92647278,2.3204311 C6.5683846,2.20647477 6.19829916,2.12953049 5.81649793,2.08938718 L5.81649793,0.321427943 C5.81649793,0.227736764 5.78641684,0.15068694 5.72632501,0.0903840177 C5.66609245,0.0302218261 5.58904263,0 5.49514035,0 L4.13899308,0 C4.05195141,0 3.97662553,0.0317698591 3.91301544,0.095415125 C3.84940536,0.159060391 3.81760032,0.234351087 3.81760032,0.321427943 L3.81760032,2.12949531 C2.76620445,2.33031741 1.91239389,2.7790007 1.25613344,3.47543964 C0.599943361,4.17191376 0.271725182,4.98206275 0.271725182,5.90627364 C0.271725182,6.18080322 0.300293427,6.44196342 0.357218822,6.68961352 C0.414073853,6.93747471 0.484438989,7.16014519 0.568173501,7.35766012 C0.651837649,7.55531579 0.770754729,7.7494532 0.92474883,7.94035382 C1.07874293,8.13118407 1.22443395,8.29527557 1.36168114,8.43248758 C1.49899871,8.56966442 1.67814835,8.71201309 1.89905969,8.85928732 C2.12011177,9.00670228 2.30928844,9.12565454 2.46669525,9.21600338 C2.62413724,9.30607075 2.83336797,9.41021115 3.09445781,9.52712283 C3.35561802,9.64438633 3.56161195,9.73301122 3.71229889,9.79341969 C3.86298583,9.85361706 4.06887422,9.93742194 4.33013997,10.0443418 C4.69171123,10.1849665 4.95962648,10.2938214 5.13370983,10.3708712 C5.30793391,10.447921 5.52884525,10.5550519 5.79686606,10.6923343 C6.06464059,10.829476 6.26043158,10.9550777 6.38441495,11.0689637 C6.50829277,11.1828497 6.62041962,11.3234744 6.72093621,11.4908379 C6.82145281,11.6582013 6.87179907,11.8356622 6.87179907,12.0232557 C6.87179907,12.552296 6.66587549,12.9606952 6.2539228,13.2484183 C5.84214602,13.5364579 5.3648593,13.680425 4.82252001,13.680425 C4.57497546,13.680425 4.32700872,13.6537918 4.07932344,13.6002439 C3.20876598,13.4259143 2.39516909,13.0073825 1.63846241,12.3444725 L1.61837316,12.3243833 C1.55807024,12.2509221 1.47767807,12.2207354 1.37733739,12.2342104 C1.27017128,12.2475797 1.19312146,12.2877934 1.14629346,12.3548866 L0.111644496,13.7108227 C0.0111630815,13.8447276 0.0179533172,13.9819748 0.131768925,14.1225995 C0.165297913,14.1628132 0.223876889,14.2232217 0.307541036,14.3034379 C0.391416279,14.3839708 0.547134326,14.5093263 0.774695177,14.6804191 C1.00232639,14.8512657 1.25011722,15.0117686 1.51803248,15.1626314 C1.78591255,15.313248 2.1257058,15.4621758 2.5376233,15.6095556 C2.94954081,15.7566891 3.37634055,15.8604425 3.81833915,15.920675 L3.81833915,17.6785017 C3.81833915,17.7656841 3.85017938,17.8409396 3.91375428,17.9046201 C3.97739954,17.9683357 4.05269024,18 4.13973191,18 L5.49587919,18 C5.58978146,18 5.66683129,17.9699189 5.72702866,17.9097215 C5.78722603,17.8495242 5.81720158,17.7724743 5.81720158,17.6785369 L5.81720158,15.9207102 C6.88214274,15.7466269 7.7476691,15.2895701 8.41388621,14.5495752 C9.08017369,13.8095802 9.41342298,12.927307 9.41342298,11.9028257 C9.41307115,11.5680636 9.36962068,11.2533204 9.28173462,10.9584904 Z"></path></g></g></g></svg>