<svg viewBox="0 0 535 440" id="notebook"><defs><linearGradient x1="-6.24056743e-05%" y1="49.9979714%" x2="100.000373%" y2="49.9979714%" id="linearGradient-1"><stop stop-color="#42E8E0" offset="0%"></stop><stop stop-color="#43E3E0" offset="15%"></stop><stop stop-color="#45D5DF" offset="33%"></stop><stop stop-color="#49BDDD" offset="52%"></stop><stop stop-color="#4E9CDB" offset="72%"></stop><stop stop-color="#5472D8" offset="93%"></stop><stop stop-color="#5761D7" offset="100%"></stop></linearGradient><linearGradient x1="-0.00364502714%" y1="50.0007244%" x2="100.001436%" y2="50.0007244%" id="linearGradient-2"><stop stop-color="#C0BFF6" offset="0%"></stop><stop stop-color="#C5C4F7" offset="29%"></stop><stop stop-color="#D3D2F9" offset="64%"></stop><stop stop-color="#E9E9FD" offset="100%"></stop></linearGradient><linearGradient x1="-0.0336977368%" y1="49.9885073%" x2="99.9280333%" y2="49.9885073%" id="linearGradient-3"><stop stop-color="#5761D7" offset="0%"></stop><stop stop-color="#5C66D9" offset="18%"></stop><stop stop-color="#6A73DF" offset="39%"></stop><stop stop-color="#8289E8" offset="61%"></stop><stop stop-color="#A3A7F5" offset="85%"></stop><stop stop-color="#BCBEFF" offset="100%"></stop></linearGradient><linearGradient x1="0%" y1="49.9983769%" x2="100%" y2="49.9983769%" id="linearGradient-4"><stop stop-color="#5761D7" offset="0%"></stop><stop stop-color="#5C66D9" offset="18%"></stop><stop stop-color="#6A73DF" offset="39%"></stop><stop stop-color="#8289E8" offset="61%"></stop><stop stop-color="#A3A7F5" offset="85%"></stop><stop stop-color="#BCBEFF" offset="100%"></stop></linearGradient><linearGradient x1="33.6026783%" y1="49.99969%" x2="133.604033%" y2="49.99969%" id="linearGradient-5"><stop stop-color="#C0BFF6" offset="0%"></stop><stop stop-color="#C5C4F7" offset="29%"></stop><stop stop-color="#D3D2F9" offset="64%"></stop><stop stop-color="#E9E9FD" offset="100%"></stop></linearGradient><linearGradient x1="-0.004272135%" y1="50.0073162%" x2="99.9978639%" y2="50.0073162%" id="linearGradient-6"><stop stop-color="#C0BFF6" offset="0%"></stop><stop stop-color="#C5C4F7" offset="29%"></stop><stop stop-color="#D3D2F9" offset="64%"></stop><stop stop-color="#E9E9FD" offset="100%"></stop></linearGradient><linearGradient x1="33.6030363%" y1="49.996212%" x2="133.604391%" y2="49.996212%" id="linearGradient-7"><stop stop-color="#C0BFF6" offset="0%"></stop><stop stop-color="#C5C4F7" offset="29%"></stop><stop stop-color="#D3D2F9" offset="64%"></stop><stop stop-color="#E9E9FD" offset="100%"></stop></linearGradient><linearGradient x1="0.00213611313%" y1="50.0091145%" x2="99.9978639%" y2="50.0091145%" id="linearGradient-8"><stop stop-color="#C0BFF6" offset="0%"></stop><stop stop-color="#C5C4F7" offset="29%"></stop><stop stop-color="#D3D2F9" offset="64%"></stop><stop stop-color="#E9E9FD" offset="100%"></stop></linearGradient><linearGradient x1="16.7380225%" y1="13.998976%" x2="73.1819142%" y2="94.1677715%" id="linearGradient-9"><stop stop-color="#BCBEFF" offset="0%"></stop><stop stop-color="#5761D7" offset="48%"></stop><stop stop-color="#5C66D9" offset="58%"></stop><stop stop-color="#6A73DF" offset="68%"></stop><stop stop-color="#8289E8" offset="80%"></stop><stop stop-color="#A3A7F5" offset="92%"></stop><stop stop-color="#BCBEFF" offset="100%"></stop></linearGradient><linearGradient x1="-6.69901438%" y1="0.809242207%" x2="82.5133141%" y2="98.9887991%" id="linearGradient-10"><stop stop-color="#5761D7" offset="0%"></stop><stop stop-color="#5761D7" offset="100%"></stop></linearGradient><linearGradient x1="0%" y1="50%" x2="100%" y2="50%" id="linearGradient-11"><stop stop-color="#42E8E0" offset="0%"></stop><stop stop-color="#43E3E0" offset="15%"></stop><stop stop-color="#45D5DF" offset="33%"></stop><stop stop-color="#49BDDD" offset="52%"></stop><stop stop-color="#4E9CDB" offset="72%"></stop><stop stop-color="#5472D8" offset="93%"></stop><stop stop-color="#5761D7" offset="100%"></stop></linearGradient><linearGradient x1="0%" y1="49.9979534%" x2="100%" y2="49.9979534%" id="linearGradient-12"><stop stop-color="#42E8E0" offset="0%"></stop><stop stop-color="#43E3E0" offset="15%"></stop><stop stop-color="#45D5DF" offset="33%"></stop><stop stop-color="#49BDDD" offset="52%"></stop><stop stop-color="#4E9CDB" offset="72%"></stop><stop stop-color="#5472D8" offset="93%"></stop><stop stop-color="#5761D7" offset="100%"></stop></linearGradient><linearGradient x1="0%" y1="49.9970105%" x2="100%" y2="49.9970105%" id="linearGradient-13"><stop stop-color="#42E8E0" offset="0%"></stop><stop stop-color="#43E3E0" offset="15%"></stop><stop stop-color="#45D5DF" offset="33%"></stop><stop stop-color="#49BDDD" offset="52%"></stop><stop stop-color="#4E9CDB" offset="72%"></stop><stop stop-color="#5472D8" offset="93%"></stop><stop stop-color="#5761D7" offset="100%"></stop></linearGradient><linearGradient x1="0%" y1="49.9962993%" x2="100%" y2="49.9962993%" id="linearGradient-14"><stop stop-color="#42E8E0" offset="0%"></stop><stop stop-color="#43E3E0" offset="15%"></stop><stop stop-color="#45D5DF" offset="33%"></stop><stop stop-color="#49BDDD" offset="52%"></stop><stop stop-color="#4E9CDB" offset="72%"></stop><stop stop-color="#5472D8" offset="93%"></stop><stop stop-color="#5761D7" offset="100%"></stop></linearGradient></defs><g stroke="none" stroke-width="1" fill="none" fill-rule="evenodd"><g id="Desktop" transform="translate(-647.000000, -1495.000000)" fill-rule="nonzero"><g transform="translate(914.500000, 1715.000000) scale(-1, 1) translate(-914.500000, -1715.000000) translate(647.000000, 1495.000000)"><path id="layer-1" d="M295.493731,440 C292.16341,439.99897 288.891747,439.123541 286.006062,437.461296 L162.759473,366.318358 C161.596923,365.647151 160.880783,364.406841 160.880783,363.064586 C160.880783,361.722331 161.596923,360.62022 162.759473,359.810814 L385.156852,231.428571 L385.596958,231.682442 L517.882646,308.046647 C519.049334,308.716739 519.768683,309.959366 519.768683,311.30465 C519.768683,312.649934 519.049334,313.892561 517.882646,314.562653 L304.981399,437.461296 C302.095256,439.122434 298.823895,439.997783 295.493731,440 Z M385.156852,233.451072 L163.639685,361.300187 C163.016981,361.657887 162.633048,362.321149 162.633048,363.039199 C162.633048,363.757249 163.016981,364.420512 163.639685,364.778211 L286.87781,435.929612 C292.209996,438.993658 298.769002,438.993658 304.101187,435.929612 L517.010897,313.064818 C517.633192,312.704793 518.016393,312.040432 518.016393,311.321575 C518.016393,310.602717 517.633192,309.938357 517.010897,309.578332 L385.156852,233.451072 Z" fill="url(#linearGradient-1)"></path><path d="M385.495961,178.901922 L355.906933,3.39014623 L358.279798,2.39392757 L354.707835,0.308622425 C353.82697,-0.164486782 352.752482,-0.0889274932 351.94653,0.502800637 L115.445414,137.043854 C113.503212,138.16671 112.067671,141.037171 112.371668,143.046493 L142.197138,319.985057 C142.2752,320.767363 142.759726,321.450687 143.472236,321.783316 L146.976645,323.809524 L147.576194,320.542264 L147.373529,320.601362 L382.447548,184.904562 C384.372862,183.781705 385.825291,180.911245 385.495961,178.901922 Z" fill="url(#linearGradient-2)"></path><path d="M116.729633,142.64235 L112.860747,140.952381 C112.422617,141.859594 112.250835,142.873891 112.365597,143.876028 L142.007478,320.934124 C142.085059,321.717108 142.566604,322.401024 143.274728,322.733941 L146.757565,324.761905 L147.353424,321.491814 L147.152007,321.550963 L158.976868,314.681237 L116.729633,142.64235 Z" fill="url(#linearGradient-3)"></path><path d="M385.282662,187.331923 L148.774871,324.24538 C146.950968,325.303705 145.397274,324.69411 145.067958,322.797591 L115.235332,145.354499 C114.897572,143.339447 116.366827,140.460802 118.308945,139.334744 L354.816736,2.42128677 C356.640639,1.36296124 358.194333,1.97255675 358.523649,3.86907609 L388.347831,181.312167 C388.694035,183.327219 387.22478,186.205865 385.282662,187.331923 Z" fill="#24126A"></path><g id="Group" opacity="0.51" transform="translate(122.802491, 13.333333)" fill="#453C9E"><polygon points="228.814522 0.422383643 0.541112568 132.09626 28.8480638 298.836427 256.969286 167.247027"></polygon></g><path d="M535,270.913763 L522.076529,277.687888 L392.444306,202.749131 C390.27066,201.495917 386.481579,201.656803 383.986538,203.104772 L160.396961,332.329673 C158.257146,331.135733 148.505338,326.402313 148.505338,326.402313 L153.241689,338.748156 C153.491885,339.381115 153.959844,339.903681 154.561101,340.221528 L291.111778,419.148551 C293.276967,420.410232 297.032216,420.249347 299.569547,418.801377 L528.360651,286.553524 C529.221214,286.121574 529.901332,285.398666 530.280565,284.512818 L535,270.913763 Z" fill="url(#linearGradient-4)"></path><path d="M532.880159,273.172748 L298.522012,408.300903 C295.986034,409.778313 292.080629,409.938717 289.857422,408.663924 L150.006708,328.022656 C147.783501,326.73942 148.062459,324.502199 150.623796,323.024788 L384.981943,187.888192 C387.51792,186.410782 391.431779,186.250377 393.654986,187.533613 L533.5057,268.174881 C535.720454,269.449675 535.441496,271.686896 532.880159,273.172748 Z" fill="url(#linearGradient-5)"></path><path d="M227.517794,379.278133 L227.517794,376.512051 C227.517794,376.244663 227.67259,376.11558 227.872915,376.235443 L237.634202,381.942791 C237.855174,382.102356 237.987227,382.3595 237.989324,382.634312 L237.989324,385.400393 C237.989324,385.667781 237.834527,385.787645 237.634202,385.667781 L227.872915,379.960433 C227.653373,379.80379 227.521312,379.550059 227.517794,379.278133 Z" fill="#2842A2"></path><path d="M241.797153,387.840446 L241.797153,385.074409 C241.797153,384.816246 241.960913,384.687164 242.151966,384.807025 L251.91387,390.514281 C252.127187,390.6803 252.257087,390.933467 252.268683,391.20579 L252.268683,393.971827 C252.268683,394.23921 252.104923,394.359072 251.91387,394.23921 L242.151966,388.531955 C241.938649,388.365936 241.80875,388.112769 241.797153,387.840446 Z" fill="#2842A2"></path><path d="M186.444748,320.548854 L380.872852,208.192904 C382.175522,207.427762 383.789724,207.427762 385.092395,208.192904 L454.2929,248.294686 C454.752706,248.562414 455.035587,249.05472 455.035587,249.587202 C455.035587,250.119684 454.752706,250.611989 454.2929,250.879717 L259.957627,363.235667 C258.654956,364.000809 257.040754,364.000809 255.738083,363.235667 L186.410992,323.19302 C185.924618,322.927871 185.624718,322.415102 185.631795,321.860753 C185.638872,321.306404 185.951765,320.801475 186.444748,320.548854 Z" fill="#ADB1F2"></path><path d="M186.365163,323.411551 L187.057286,323.809524 L380.826437,211.58971 C382.129329,210.822785 383.743807,210.822785 385.0467,211.58971 L453.59221,251.386973 L454.292773,250.980533 C454.752657,250.712181 455.035587,250.218728 455.035587,249.685005 C455.035587,249.151282 454.752657,248.657829 454.292773,248.389477 L385.080462,208.194242 C383.77757,207.427316 382.163092,207.427316 380.860199,208.194242 L186.398925,320.812028 C185.931387,321.073158 185.638772,321.565204 185.6318,322.101983 C185.624828,322.638762 185.904565,323.138289 186.365163,323.411551 Z" fill="#9198DB"></path><polygon fill="#24126A" points="391.254448 218.617955 221.729718 316.190476 214.190391 311.858236 383.715122 214.285714"></polygon><polygon fill="#24126A" points="407.437722 229.117636 249.295251 320.952381 241.797153 316.59665 399.939624 224.761905"></polygon><polygon fill="#24126A" points="420.765125 235.780222 234.083773 343.809524 226.565836 339.457873 413.255635 231.428571"></polygon><polygon fill="#24126A" points="433.140569 243.391131 246.459218 351.428571 238.941281 347.076593 425.622633 239.047619"></polygon><polygon fill="#24126A" points="444.564057 250.065936 257.882705 358.095238 250.364769 353.743588 437.04612 245.714286"></polygon><polygon fill="#24126A" points="209.430605 322.376779 202.290925 326.666667 195.151246 322.376779 202.290925 318.095238"></polygon><polygon fill="#24126A" points="237.989324 328.138638 222.571581 337.142857 215.142349 332.805304 230.560092 323.809524"></polygon><path d="M388.570342,348.635439 L441.118466,318.309605 C443.174035,317.117206 443.174035,315.197528 441.118466,314.013586 L405.184076,293.269227 C402.847118,292.084861 400.085457,292.084861 397.748499,293.269227 L345.191916,323.603518 C343.144806,324.78746 343.144806,326.707138 345.191916,327.899537 L381.126306,348.635439 C383.466214,349.819933 386.230434,349.819933 388.570342,348.635439 Z" fill="url(#linearGradient-6)"></path><path d="M345.172035,325.439165 L397.75106,295.073309 C400.089016,293.88771 402.851857,293.88771 405.189812,295.073309 L441.139546,315.839254 C441.683471,316.127269 442.130784,316.568842 442.425883,317.109084 C442.975961,316.067823 442.561287,314.89958 441.139546,314.078424 L405.189812,293.270152 C402.851857,292.084553 400.089016,292.084553 397.75106,293.270152 L345.172035,323.636007 C343.758757,324.48256 343.344083,325.625407 343.885698,326.666667 C344.192086,326.145851 344.637535,325.720777 345.172035,325.439165 Z" fill="#9198DB"></path><g id="Group" opacity="0.11" transform="translate(0.000000, 100.952381)"><g id="Shape"><path d="M385.238681,86.9225517 L150.706583,222.120395 C148.168723,223.598383 144.25196,223.75885 142.027102,222.475112 L2.07258563,141.810782 C-0.143812064,140.527044 0.135352531,138.288949 2.69859108,136.810961 L237.230689,1.60467206 C239.768549,0.126684636 243.685313,-0.0337825696 245.90171,1.24995508 L385.856227,81.9227314 C388.081084,83.1980234 387.80192,85.4361186 385.238681,86.9225517 Z" fill="url(#linearGradient-7)"></path><path d="M150.004442,111.1531 L202.555062,80.8670261 C204.610729,79.6846361 204.610729,77.7590296 202.555062,76.5766397 L166.652803,55.8679245 C164.317716,54.6768644 161.551961,54.6768644 159.216874,55.8679245 L106.632416,86.1455526 C104.576749,87.3279425 104.576749,89.253549 106.632416,90.4359389 L142.568513,111.144654 C144.904233,112.330123 147.666026,112.33326 150.004442,111.1531 Z" fill="url(#linearGradient-8)"></path><path d="M106.632416,87.9106918 L159.183036,57.6161725 C161.520104,56.4333588 164.281897,56.4333588 166.618965,57.6161725 L202.555062,78.3333333 C203.099284,78.6229261 203.548583,79.0626923 203.849371,79.6001797 C204.390781,78.5613657 203.976264,77.395867 202.555062,76.5766397 L166.652803,55.8679245 C164.317716,54.6768644 161.551961,54.6768644 159.216874,55.8679245 L106.632416,86.1455526 C105.211214,86.9901168 104.796697,88.1302785 105.338107,89.1690925 C105.640178,88.6347244 106.089356,88.1980079 106.632416,87.9106918 Z" fill="#9198DB"></path><path d="M83.5294305,158.490925 L278.428615,46.1638814 C279.734442,45.3989361 281.352555,45.3989361 282.658382,46.1638814 L352.026554,86.2553459 C352.487473,86.5230053 352.77104,87.0151842 352.77104,87.5475292 C352.77104,88.0798742 352.487473,88.5720531 352.026554,88.8397125 L157.220424,201.166757 C155.914598,201.931702 154.296484,201.931702 152.990657,201.166757 L83.4955924,161.134412 C83.0080407,160.86933 82.7074139,160.356694 82.7145081,159.802487 C82.7216022,159.248281 83.0352528,158.743482 83.5294305,158.490925 Z" fill="#ADB1F2"></path><path d="M83.5294305,161.083738 L84.2315718,161.480683 L278.428615,49.5421384 C279.73731,48.787804 281.349687,48.787804 282.658382,49.5421384 L351.36671,89.2366577 L352.060392,88.8397125 C352.521311,88.5720531 352.804878,88.0798742 352.804878,87.5475292 C352.804878,87.0151842 352.521311,86.5230053 352.060392,86.2553459 L282.69222,46.1638814 C281.386394,45.3989361 279.76828,45.3989361 278.462453,46.1638814 L83.5632687,158.490925 C83.0946771,158.751382 82.8014029,159.242157 82.7944156,159.77755 C82.7874284,160.312944 83.0677952,160.811181 83.5294305,161.083738 Z" fill="#9198DB"></path><polygon fill="#24126A" points="333.863936 83.5105121 164.072646 181.378616 170.806434 185.255166 340.589265 87.387062"></polygon><polygon fill="#24126A" points="315.972023 73.1983827 154.597969 166.218688 161.323298 170.095238 322.705812 77.0749326"></polygon><polygon fill="#24126A" points="142.543134 173.161006 127.468246 181.851572 134.193575 185.728122 149.268463 177.037556"></polygon><polygon fill="#24126A" points="155.858439 186.116622 145.360158 192.163702 152.085487 196.040252 162.583768 189.993172"></polygon><polygon fill="#24126A" points="304.763142 66.7374663 116.259364 175.390656 122.984693 179.267206 311.488471 70.6140162"></polygon><polygon fill="#24126A" points="293.554261 60.2765499 105.050483 168.929739 111.775812 172.806289 300.279589 64.1530997"></polygon><polygon fill="#24126A" points="282.345379 53.8156334 93.8416015 162.468823 100.56693 166.345373 289.070708 57.6921833"></polygon></g></g><path d="M331.498366,367.619048 L494.065836,274.501713 C494.015576,274.057926 493.812009,273.645088 493.489716,273.333333 L330.329181,366.786892 L331.498366,367.619048 Z" fill="#FFFFFF" opacity="0.3"></path><path d="M325.538117,58.0952381 L163.736655,150.589318 L164.906365,151.428571 L326.521352,59.026809 C326.351764,58.5856892 325.990668,58.2435676 325.538117,58.0952381 Z" fill="#FFFFFF" opacity="0.3"></path><path d="M493.207954,274.183105 L384.728194,211.460499 C384.683183,211.43614 384.634647,211.418981 384.584344,211.409643 L373.423283,199.543204 L325.868193,59.2140881 C325.665111,58.6038141 325.148944,58.0952524 324.717394,58.0952524 L322.449642,58.0952524 C322.363144,58.0945727 322.278168,58.1180538 322.204251,58.1630607 L162.784698,150.373767 L213.411406,292.855794 L222.846268,304.417096 L245.69302,318.233021 L315.925626,358.273776 L334.414571,371.428571 L493.817201,279.158533 C493.991623,279.028346 494.084831,278.81586 494.062592,278.599115 L494.062592,275.649458 C494.022632,275.053595 493.706326,274.510888 493.207954,274.183105 Z" fill="url(#linearGradient-9)"></path><path d="M333.3196,364.538429 L225.252819,302.112925 C225.202257,302.112925 225.160123,302.112925 225.117988,302.062324 L214.002885,290.255284 L166.668893,150.645478 C166.466647,150.029825 165.952605,149.532243 165.522833,149.52381 L163.264419,149.52381 C162.843073,149.52381 162.666108,150.012958 162.868354,150.628611 L210.236053,290.196249 C210.438299,290.811902 210.952341,291.309484 211.382114,291.317918 L211.921437,291.90827 C211.932973,292.446386 212.139632,292.961944 212.502894,293.358849 L222.724744,304.482767 C223.120809,304.904447 223.567436,305.047818 223.837097,304.879146 L224.418554,305.511666 C224.447312,306.112487 224.760247,306.66369 225.261246,306.995979 L333.294319,369.404616 C333.774653,369.682925 334.137011,369.455217 334.137011,368.915467 L334.137011,366.005875 C334.11144,365.41497 333.808379,364.870904 333.3196,364.538429 Z" fill="url(#linearGradient-10)"></path><polygon fill="#5351AF" points="225.473784 302.857143 384.590747 210.910358 373.442587 199.047619 214.190391 290.952187"></polygon><polygon id="page-9" fill="url(#linearGradient-11)" opacity="0.5" points="215.555449 290.47619 207.52669 162.587122 366.098875 70.4761905 374.119217 198.373721"></polygon><polygon id="page-8" fill="url(#linearGradient-12)" opacity="0.5" points="216.094306 291.428571 229.766843 176.840275 388.398577 84.7619048 374.72604 199.350201"></polygon><polygon id="page-7" fill="url(#linearGradient-11)" opacity="0.5" points="217.998221 292.380952 252.939893 195.854367 412.197509 103.809524 377.255837 200.344565"></polygon><polygon id="page-6" fill="url(#linearGradient-11)" opacity="0.5" points="218.950178 293.333333 273.711978 218.775047 433.140569 126.666667 378.378769 201.233415"></polygon><polygon id="page-5" fill="url(#linearGradient-13)" opacity="0.5" points="220.854093 295.238095 293.006601 245.679607 452.179715 153.333333 380.027207 202.883337"></polygon><polygon id="page-4" fill="url(#linearGradient-14)" opacity="0.5" points="380.844096 204.125809 467.411032 181.904762 308.372986 273.969429 221.80605 296.190476"></polygon><polygon id="page-3" fill="url(#linearGradient-11)" opacity="0.5" points="383.090285 205.714286 480.738434 211.610165 321.358113 303.809524 223.709964 297.913644"></polygon><polygon id="page-2" fill="url(#linearGradient-11)" opacity="0.5" points="383.938958 207.619048 488.354093 241.342323 329.077056 333.333333 224.661922 299.61851"></polygon><polygon id="page-1" fill="url(#linearGradient-11)" opacity="0.5" points="384.155657 209.52381 491.209964 269.766851 331.716229 361.904762 224.661922 301.653255"></polygon><polygon id="page-10" fill="url(#linearGradient-11)" opacity="0.5" points="374.119217 199.453171 214.292096 291.428571 184.679715 155.784924 344.506836 63.8095238 374.119217 199.453171"></polygon></g></g></g><animate xlink:href="#layer-1" attributeName="opacity" from="0" fill="freeze" to="1" dur=".4s" begin="main.end + .3s" id="anim-0"/><animate xlink:href="#page-1" attributeName="opacity" from="0.6" fill="freeze" to="0" dur=".5s" begin="anim-0.end + .5s; anim-10.end + 0.000001s" id="anim-1"/><animate xlink:href="#page-2" attributeName="opacity" from="0.6" fill="freeze" to="0" dur=".5s" begin="anim-1.begin + .4s" id="anim-2"/><animate xlink:href="#page-3" attributeName="opacity" from="0.6" fill="freeze" to="0" dur=".5s" begin="anim-2.begin + .4s" id="anim-3"/><animate xlink:href="#page-4" attributeName="opacity" from="0.6" fill="freeze" to="0" dur=".5s" begin="anim-3.begin + .4s" id="anim-4"/><animate xlink:href="#page-5" attributeName="opacity" from="0.6" fill="freeze" to="0" dur=".5s" begin="anim-4.begin + .4s" id="anim-5"/><animate xlink:href="#page-6" attributeName="opacity" from="0.6" fill="freeze" to="0" dur=".5s" begin="anim-5.begin + .4s" id="anim-6"/><animate xlink:href="#page-7" attributeName="opacity" from="0.6" fill="freeze" to="0" dur=".5s" begin="anim-6.begin + .4s" id="anim-7"/><animate xlink:href="#page-8" attributeName="opacity" from="0.6" fill="freeze" to="0" dur=".5s" begin="anim-7.begin + .4s" id="anim-8"/><animate xlink:href="#page-9" attributeName="opacity" from="0.6" fill="freeze" to="0" dur=".5s" begin="anim-8.begin + .4s" id="anim-9"/><animate xlink:href="#page-10" attributeName="opacity" from="0.6" fill="freeze" to="0" dur=".5s" begin="anim-9.begin + .4s" id="anim-10"/><animate xlink:href="#notebook" attributeName="opacity" from="0" fill="freeze" begin="click" to="1" dur=".001s" id="main"/></svg>