<!DOCTYPE svg PUBLIC “-//W3C//DTD SVG 1.1//EN” “http://www.w3.org/Graphics/SVG/1.1/DTD/svg11.dtd”><svg width="48px" height="48px" viewBox="0 0 48 48" version="1.1" xmlns="http://www.w3.org/2000/svg" xmlns:xlink="http://www.w3.org/1999/xlink"><g id="Page-1" stroke="none" stroke-width="1" fill="none" fill-rule="evenodd"><g id="Desktop" transform="translate(-384.000000, -390.000000)" fill="#FFFFFF" fill-rule="nonzero"><g id="team" transform="translate(384.000000, 390.000000)"><path d="M24.6383438,46.3996875 C24.4640625,46.2253125 24.2221875,46.125 23.975625,46.125 C23.7289688,46.125 23.4870937,46.2253125 23.3128125,46.3996875 C23.1384375,46.5740625 23.038125,46.8159375 23.038125,47.0625 C23.038125,47.3090625 23.1383438,47.5509375 23.3128125,47.7253125 C23.4870938,47.8996875 23.7289688,48 23.975625,48 C24.2221875,48 24.4640625,47.8996875 24.6383438,47.7253125 C24.8127188,47.5509375 24.913125,47.3090625 24.913125,47.0625 C24.913125,46.8159375 24.8128125,46.5740625 24.6383438,46.3996875 Z" id="Shape"></path><path d="M42.99,30.6629063 L39.8626875,29.9158125 L39.8626875,28.6753125 C41.5985625,27.5781563 42.7546875,25.64325 42.7546875,23.442375 L42.7546875,19.9485938 C42.7546875,16.53675 39.9789375,13.7610938 36.567,13.7610938 C34.7265,13.7610938 33.0720938,14.5697813 31.937625,15.849375 C30.9440625,12.4084688 27.7662188,9.88471875 24.00975,9.88471875 L24.0096563,9.88471875 C20.2470938,9.88471875 17.0649375,12.4164375 16.0769063,15.8657813 C14.9421563,14.5767188 13.2816563,13.7610938 11.4332813,13.7610938 C8.02134375,13.7610938 5.24559375,16.5368438 5.24559375,19.9485938 L5.24559375,23.442375 C5.24559375,25.6433438 6.40171875,27.57825 8.13759375,28.6753125 L8.13759375,29.9158125 L5.01028125,30.6629063 C2.06025,31.3675313 0,33.9778125 0,37.0105313 L0,43.3125 C0,43.8302813 0.4198125,44.25 0.9375,44.25 L8.43403125,44.25 L8.43403125,47.0625 C8.43403125,47.5802813 8.85384375,48 9.37153125,48 L19.6562812,48 C20.1739687,48 20.5937812,47.5802813 20.5937812,47.0625 C20.5937812,46.5447188 20.1739687,46.125 19.6562812,46.125 L15.471,46.125 L15.471,41.998875 C15.471,41.4810938 15.0511875,41.061375 14.5335,41.061375 C14.0158125,41.061375 13.596,41.4810938 13.596,41.998875 L13.596,46.125 L10.3089375,46.125 L10.3089375,41.8951875 C10.3089375,38.71575 12.468375,35.9777813 15.5603437,35.236875 L20.17125,34.1319375 L23.1380625,40.8815625 C23.2876875,41.2219688 23.6243438,41.4418125 23.9961562,41.4418125 L23.99625,41.4418125 C24.3680625,41.4418125 24.7048125,41.2220625 24.8544375,40.8816563 L27.81825,34.141875 L32.41575,35.2401562 C35.5105312,35.979375 37.6718437,38.7179063 37.6718437,41.8995938 L37.6718437,42.94575 C37.6239375,43.0584375 37.5973125,43.1822813 37.5973125,43.3124063 C37.5973125,43.4425313 37.6239375,43.5664687 37.6718437,43.6790625 L37.6718437,46.125 L34.404,46.125 L34.404,41.998875 C34.404,41.4810938 33.9841875,41.061375 33.4665,41.061375 C32.9488125,41.061375 32.529,41.4810938 32.529,41.998875 L32.529,46.125 L27.9375937,46.125 C27.4199062,46.125 27.0000937,46.5447188 27.0000937,47.0625 C27.0000937,47.5802813 27.4199062,48 27.9375937,48 L38.6093437,48 C39.1270312,48 39.5468437,47.5802813 39.5468437,47.0625 L39.5468437,44.25 L47.0625,44.25 C47.5801875,44.25 48,43.8302813 48,43.3125 L48,37.0105313 C48,33.9778125 45.93975,31.3675313 42.99,30.6629063 Z M36.5669063,15.6360938 C38.944875,15.6360938 40.8795938,17.5707188 40.8795938,19.9485938 L40.8795938,20.1807188 L40.8795938,20.2749375 L38.1980625,20.2749375 C36.1725,20.2749375 34.1820937,19.7430938 32.4279375,18.735 C32.9535,16.9460625 34.6100625,15.6360938 36.5669063,15.6360938 Z M32.2542187,23.289375 C32.2575,23.1936563 32.2598437,20.768625 32.2598437,20.768625 C34.102875,21.675 36.1347187,22.1500313 38.1981562,22.1500313 L40.8796875,22.1500313 L40.8796875,23.4424688 C40.8795937,25.8203438 38.944875,27.754875 36.5669062,27.754875 C34.1889375,27.754875 32.2542187,25.82025 32.2542187,23.442375 L32.2542187,23.289375 Z M17.634375,18.1348125 C17.634375,14.6195625 20.4943125,11.7598125 24.0096562,11.7598125 C27.5249062,11.7598125 30.3848437,14.6196563 30.3848437,18.1348125 L30.3848437,18.2570625 L26.9053125,16.2128438 C26.5105312,15.9808125 26.0059687,16.0680938 25.711875,16.419 C24.36,18.03225 22.377375,18.9575625 20.2724062,18.9575625 L17.634375,18.9575625 L17.634375,18.1348125 Z M7.12040625,20.1808125 L7.12040625,19.9485938 C7.12040625,17.570625 9.055125,15.6360938 11.4330938,15.6360938 C13.3899375,15.6360938 15.0465,16.9460625 15.5719687,18.7350938 C13.8178125,19.7430938 11.8275,20.2750313 9.80184375,20.2750313 L7.12040625,20.2750313 L7.12040625,20.1808125 Z M7.12040625,23.442375 L7.12040625,22.1499375 L9.8019375,22.1499375 C11.8674375,22.1499375 13.9013438,21.6740625 15.7457813,20.7659063 L15.7457813,23.442375 C15.7457813,25.8203437 13.8110625,27.754875 11.4330938,27.754875 C9.055125,27.754875 7.12040625,25.82025 7.12040625,23.442375 Z M8.43403125,41.8951875 L8.43403125,42.375 L5.625,42.375 L5.625,38.2097813 C5.625,37.692 5.2051875,37.2722813 4.6875,37.2722813 C4.1698125,37.2722813 3.75,37.692 3.75,38.2097813 L3.75,42.375 L1.875,42.375 L1.875,37.0105313 C1.875,34.849125 3.3433125,32.9888438 5.44565625,32.486625 L8.41734375,31.7766563 L10.3568437,36.4224375 C9.1438125,37.929375 8.43403125,39.8394375 8.43403125,41.8951875 Z M11.4332812,34.1338125 L10.0095,30.7232813 C10.0110937,30.700875 10.0124062,30.6784688 10.0124062,30.6557813 L10.0124062,29.4634688 C10.468875,29.5710938 10.9441875,29.629875 11.4330937,29.629875 C11.9198438,29.629875 12.3929062,29.5715625 12.8475937,29.464875 L12.8475937,30.5964375 C12.8465625,30.6140625 12.8460937,30.6316875 12.8460937,30.6493125 C12.8460937,30.6788438 12.8489063,30.7081875 12.8517187,30.7375313 L11.4332812,34.1338125 Z M15.1234687,33.4135313 C14.569875,33.5461875 14.0408437,33.7307813 13.5385312,33.9584063 L14.4516562,31.7719688 L17.4238125,32.4841875 C17.6543437,32.5394063 17.8789687,32.6124375 18.096375,32.701125 L15.1234687,33.4135313 Z M19.7768438,31.4595 C19.1882812,31.0944375 18.5425312,30.8241563 17.8607812,30.6608438 L14.7225937,29.908875 L14.7225937,28.6793438 C15.5030625,28.1874375 16.1659687,27.5263125 16.660125,26.7474375 C17.3669062,28.1282813 18.4516875,29.2845938 19.7768438,30.0799688 L19.7768438,31.4595 Z M26.3374687,32.8512188 L23.9964375,38.1749063 L21.6518437,32.8408125 L21.6518437,30.9073125 C22.3992187,31.130625 23.1905625,31.2510938 24.0095625,31.2510938 C24.8176875,31.2510938 25.5989062,31.1337188 26.3374687,30.916125 L26.3374687,32.8512188 Z M24.0096562,29.3761875 C20.4942187,29.3760938 17.634375,26.51625 17.634375,23.0010938 L17.634375,20.8326563 L20.2723125,20.8326563 C22.6651875,20.8326563 24.9330937,19.8869063 26.6085937,18.2131875 L30.3793125,20.4284063 L30.3793125,23.221125 C30.2626875,26.6346563 27.4512187,29.3761875 24.0096562,29.3761875 Z M28.2124687,30.0975938 L28.2125625,30.0975938 C29.545875,29.3049375 30.63825,28.1477813 31.3504687,26.7639375 C31.8435937,27.5355938 32.5025625,28.1908125 33.2774062,28.6793438 L33.2774062,29.908875 L30.1392187,30.6608438 C29.4533437,30.8251875 28.8039375,31.0979063 28.2124687,31.4663438 L28.2124687,30.0975938 Z M32.8513125,33.416625 L29.8864688,32.70825 C30.1092188,32.616375 30.3395625,32.5409063 30.5761875,32.4841875 L33.541125,31.77375 L34.458,33.9699375 C33.9492188,33.7381875 33.412875,33.5507813 32.8513125,33.416625 Z M35.1463125,30.7515 C35.1500625,30.7174688 35.1527813,30.68325 35.1527813,30.6489375 C35.1527813,30.6402188 35.1526875,30.6314063 35.1524062,30.6226875 L35.1524062,29.464875 C35.6070938,29.5716563 36.0801563,29.629875 36.5669063,29.629875 C37.0558125,29.629875 37.531125,29.5710938 37.9875937,29.463375 L37.9875937,30.6556875 C37.9875937,30.67275 37.9888125,30.6895313 37.98975,30.7064063 L36.558375,34.1338125 L35.1463125,30.7515 Z M46.125,42.375 L44.25,42.375 L44.25,38.2097813 C44.25,37.692 43.8301875,37.2722813 43.3125,37.2722813 C42.7948125,37.2722813 42.375,37.692 42.375,38.2097813 L42.375,42.375 L39.5468437,42.375 L39.5468437,41.8996875 C39.5468437,39.8466563 38.8394062,37.9392188 37.6298437,36.4335938 L39.5754375,31.7749688 L42.5543437,32.486625 C44.6566875,32.9888438 46.125,34.849125 46.125,37.0105313 L46.125,42.375 Z" id="Shape"></path><path d="M21.5183437,21.954375 C21.3440625,21.78 21.1021875,21.6796875 20.855625,21.6796875 C20.6090625,21.6796875 20.3671875,21.78 20.1928125,21.954375 C20.0184375,22.12875 19.918125,22.370625 19.918125,22.6171875 C19.918125,22.86375 20.0183437,23.105625 20.1928125,23.28 C20.3672812,23.454375 20.6090625,23.5546875 20.855625,23.5546875 C21.103125,23.5546875 21.3440625,23.454375 21.5183437,23.28 C21.6936563,23.105625 21.793125,22.86375 21.793125,22.6171875 C21.793125,22.370625 21.6936563,22.12875 21.5183437,21.954375 Z" id="Shape"></path><path d="M27.7874063,21.954375 C27.613125,21.78 27.37125,21.6796875 27.1246875,21.6796875 C26.878125,21.6796875 26.63625,21.78 26.461875,21.954375 C26.2875,22.12875 26.1871875,22.370625 26.1871875,22.6171875 C26.1871875,22.86375 26.2874063,23.105625 26.461875,23.28 C26.6363438,23.454375 26.878125,23.5546875 27.1246875,23.5546875 C27.37125,23.5546875 27.613125,23.454375 27.7874063,23.28 C27.9627188,23.105625 28.0621875,22.86375 28.0621875,22.6171875 C28.0621875,22.370625 27.9627188,22.12875 27.7874063,21.954375 Z" id="Shape"></path><path d="M25.8044063,25.1101875 C25.4382188,24.7440937 24.8447813,24.7440937 24.4785,25.1101875 C24.2012813,25.3874062 23.75025,25.3874062 23.4730313,25.1101875 C23.1068438,24.7440937 22.5134063,24.7440937 22.147125,25.1101875 C21.7810313,25.4762812 21.7810313,26.0699063 22.147125,26.4360938 C22.6513125,26.9401875 23.3134688,27.1922813 23.9757188,27.1922813 C24.6379688,27.1922813 25.300125,26.9402813 25.8043125,26.4360938 C26.1705,26.0699063 26.1705,25.4762812 25.8044063,25.1101875 Z" id="Shape"></path><path d="M38.7636562,5.0625 L38.120625,5.0625 C37.6029375,5.0625 37.183125,5.48221875 37.183125,6 C37.183125,6.51778125 37.6029375,6.9375 38.120625,6.9375 L38.7636562,6.9375 C39.2813437,6.9375 39.7011562,6.51778125 39.7011562,6 C39.7011562,5.48221875 39.2813437,5.0625 38.7636562,5.0625 Z" id="Shape"></path><path d="M43.3125,5.0625 L42.6694688,5.0625 C42.1517813,5.0625 41.7319688,5.48221875 41.7319688,6 C41.7319688,6.51778125 42.1516875,6.9375 42.6694688,6.9375 L43.3125,6.9375 C43.8301875,6.9375 44.25,6.51778125 44.25,6 C44.25,5.48221875 43.8301875,5.0625 43.3125,5.0625 Z" id="Shape"></path><path d="M40.7166562,7.01540625 C40.1989687,7.01540625 39.7791562,7.435125 39.7791562,7.95290625 L39.7791562,8.5959375 C39.7791562,9.11371875 40.198875,9.5334375 40.7166562,9.5334375 C41.2343438,9.5334375 41.6541562,9.11371875 41.6541562,8.5959375 L41.6541562,7.95290625 C41.6541562,7.435125 41.2343438,7.01540625 40.7166562,7.01540625 Z" id="Shape"></path><path d="M40.7166562,2.4665625 C40.1989687,2.4665625 39.7791562,2.88628125 39.7791562,3.4040625 L39.7791562,4.04709375 C39.7791562,4.564875 40.198875,4.98459375 40.7166562,4.98459375 C41.2343438,4.98459375 41.6541562,4.564875 41.6541562,4.04709375 L41.6541562,3.4040625 C41.6541562,2.88628125 41.2343438,2.4665625 40.7166562,2.4665625 Z" id="Shape"></path><path d="M5.2783125,5.0625 L4.635375,5.0625 C4.1176875,5.0625 3.697875,5.48221875 3.697875,6 C3.697875,6.51778125 4.1176875,6.9375 4.635375,6.9375 L5.2783125,6.9375 C5.796,6.9375 6.2158125,6.51778125 6.2158125,6 C6.2158125,5.48221875 5.796,5.0625 5.2783125,5.0625 Z" id="Shape"></path><path d="M9.82715625,5.0625 L9.18421875,5.0625 C8.66653125,5.0625 8.24671875,5.48221875 8.24671875,6 C8.24671875,6.51778125 8.6664375,6.9375 9.18421875,6.9375 L9.82715625,6.9375 C10.3448438,6.9375 10.7646563,6.51778125 10.7646563,6 C10.7646563,5.48221875 10.3448438,5.0625 9.82715625,5.0625 Z" id="Shape"></path><path d="M7.2313125,7.01540625 C6.713625,7.01540625 6.2938125,7.435125 6.2938125,7.95290625 L6.2938125,8.5959375 C6.2938125,9.11371875 6.71353125,9.5334375 7.2313125,9.5334375 C7.749,9.5334375 8.1688125,9.11371875 8.1688125,8.5959375 L8.1688125,7.95290625 C8.1688125,7.435125 7.749,7.01540625 7.2313125,7.01540625 Z" id="Shape"></path><path d="M7.2313125,2.4665625 C6.713625,2.4665625 6.2938125,2.88628125 6.2938125,3.4040625 L6.2938125,4.04709375 C6.2938125,4.564875 6.71353125,4.98459375 7.2313125,4.98459375 C7.749,4.98459375 8.1688125,4.564875 8.1688125,4.04709375 L8.1688125,3.4040625 C8.1688125,2.88628125 7.749,2.4665625 7.2313125,2.4665625 Z" id="Shape"></path><path d="M24,3.57065625 C23.4823125,3.57065625 23.0625,3.990375 23.0625,4.50815625 L23.0625,6.97471875 C23.0625,7.4925 23.4823125,7.91221875 24,7.91221875 C24.5176875,7.91221875 24.9375,7.4925 24.9375,6.97471875 L24.9375,4.50815625 C24.9375,3.990375 24.5176875,3.57065625 24,3.57065625 Z" id="Shape"></path><path d="M24.6627188,0.2746875 C24.4884375,0.1003125 24.2465625,0 24,0 C23.7534375,0 23.5115625,0.1003125 23.3371875,0.2746875 C23.1627187,0.4490625 23.0625,0.6909375 23.0625,0.9375 C23.0625,1.1840625 23.1627187,1.4259375 23.3371875,1.6003125 C23.5116563,1.7746875 23.7534375,1.875 24,1.875 C24.2465625,1.875 24.4884375,1.7746875 24.6627188,1.6003125 C24.8371875,1.4259375 24.9375,1.1840625 24.9375,0.9375 C24.9375,0.6909375 24.8371875,0.4490625 24.6627188,0.2746875 Z" id="Shape"></path><path d="M20.7145313,3.76115625 L19.3425938,2.38921875 C18.9764063,2.023125 18.3829688,2.023125 18.0166875,2.38921875 C17.6505938,2.7553125 17.6505938,3.3489375 18.0166875,3.715125 L19.3887188,5.0870625 C19.5718125,5.27015625 19.8117188,5.36165625 20.051625,5.36165625 C20.2915313,5.36165625 20.5314375,5.27015625 20.7145313,5.0870625 C21.080625,4.72096875 21.080625,4.12734375 20.7145313,3.76115625 Z" id="Shape"></path><path d="M29.983125,2.33765625 C29.6169375,1.9715625 29.0235,1.9715625 28.6572188,2.33765625 L27.2394375,3.7554375 C26.8733438,4.12153125 26.8733438,4.71515625 27.2394375,5.08134375 C27.422625,5.2644375 27.6624375,5.3559375 27.9024375,5.3559375 C28.1424375,5.3559375 28.38225,5.2644375 28.5653438,5.08134375 L29.983125,3.6635625 C30.3492188,3.29746875 30.3492188,2.70384375 29.983125,2.33765625 Z" id="Shape"></path></g></g></g></svg>