<svg width="109px" height="109px" viewBox="0 0 109 109" version="1.1" xmlns="http://www.w3.org/2000/svg" xmlns:xlink="http://www.w3.org/1999/xlink"><defs><ellipse id="path-1" cx="47.2027972" cy="47.5524476" rx="47.2027972" ry="47.5524476"></ellipse><linearGradient x1="0%" y1="0%" x2="101.999998%" y2="100.999999%" id="linearGradient-3"><stop stop-color="#3023AE" offset="0%"></stop><stop stop-color="#C86DD7" offset="100%"></stop></linearGradient></defs><g id="Page-1" stroke="none" stroke-width="1" fill="none" fill-rule="evenodd"><g transform="translate(-155.000000, -359.000000)"><g id="Timer" transform="translate(159.000000, 363.000000)"><g id="Oval-3" transform="translate(2.797203, 2.797203)"><mask id="mask-2" fill="white"><use xlink:href="#path-1"></use></mask><use id="Mask" fill="#166EE0" opacity="0.377943841" xlink:href="#path-1"></use><path d="M4.07764059,70.5134769 C11.9156831,74.2518037 19.2605114,74.7729907 26.1121256,72.077038 C36.3895468,68.0331088 36.5194974,60.4722048 49.7493113,55.3509502 C62.9791251,50.2296955 77.4353173,60.0739044 84.7016793,55.3509502 C89.5459205,52.202314 92.9026873,47.3320671 94.7719796,40.7402094 C96.3121507,61.1203787 91.4729175,75.1999058 80.2542799,82.9787907 C63.4263235,94.6471181 39.8187658,101.898937 27.9818371,93.4518297 C16.1449084,85.0047229 9.68319118,80.1648963 7.48393103,76.1209671 C6.01775759,73.4250144 4.88232745,71.5558509 4.07764059,70.5134769 Z" id="Path-3" fill="#2B2F97" opacity="0.702232143" mask="url(#mask-2)"></path></g><ellipse id="Oval-Copy" stroke="#1A1F81" stroke-width="2" cx="50.3496503" cy="50.6993007" rx="49.6503497" ry="50"></ellipse><path d="M50.3496503,99.3006993 C76.9983551,99.3006993 98.6013986,77.541112 98.6013986,50.6993007 C98.6013986,23.8574894 76.9983551,2.0979021 50.3496503,2.0979021 C23.7009456,2.0979021 2.0979021,23.8574894 2.0979021,50.6993007" id="Oval-Copy-3" stroke="#1A1F81" stroke-width="11" stroke-linecap="round"></path><path d="M50.0007655,83 L50.0007655,82.8212289 C50.0602977,82.8212289 50.119811,82.8210655 50.1793049,82.8207388 L50.180287,82.9995073 C50.1204657,82.9998357 50.0606251,83 50.0007655,83 Z M51.9718596,82.9403141 L51.9610157,82.7618719 C52.0205059,82.7582586 52.0799705,82.7544809 52.139409,82.7505387 L52.1512458,82.9289178 C52.0914764,82.9328818 52.0316808,82.9366807 51.9718596,82.9403141 Z M53.9380251,82.7603031 L53.9162536,82.5828619 C53.9752882,82.5756224 54.0342903,82.568219 54.0932594,82.5606521 L54.1160245,82.7379686 C54.0567243,82.745578 53.997391,82.7530229 53.9380251,82.7603031 Z M55.886553,82.4601371 L55.8538759,82.2843762 C55.9120575,82.2735649 55.9701997,82.2625923 56.0283019,82.2514587 L56.0619634,82.4270338 C56.0035332,82.4382303 55.9450629,82.4492648 55.886553,82.4601371 Z M57.8156107,82.0394146 L57.7720922,81.8660184 C57.8298673,81.8515258 57.8875947,81.8368715 57.945274,81.8220558 L57.9897725,81.9952032 C57.9317668,82.0101028 57.8737127,82.02484 57.8156107,82.0394146 Z M59.7111292,81.5009326 L59.6569391,81.330568 C59.7138223,81.3124839 59.7706497,81.2942399 59.8274208,81.2758364 L59.8825764,81.445891 C59.8254838,81.4643987 59.7683346,81.482746 59.7111292,81.5009326 Z M61.5739847,80.8442626 L61.5093081,80.6775945 C61.5648157,80.6560657 61.6202598,80.6343811 61.6756397,80.612541 L61.7412574,80.778841 C61.6855642,80.8008046 61.6298064,80.8226119 61.5739847,80.8442626 Z M63.3904036,80.0741283 L63.3155171,79.9117889 C63.3692058,79.8870355 63.4228237,79.8621325 63.4763702,79.8370801 L63.5521648,79.9989977 C63.498316,80.0241915 63.4443954,80.0492351 63.3904036,80.0741283 Z M65.1581727,79.1916662 L65.0733732,79.0342753 C65.1254265,79.0062445 65.1774009,78.9780688 65.2292957,78.9497484 L65.3149732,79.1066634 C65.2627862,79.1351432 65.2105191,79.1634777 65.1581727,79.1916662 Z M66.8694335,78.2006742 L66.7750641,78.048825 C66.8255317,78.0174774 66.8759114,77.9859886 66.9262027,77.9543591 L67.0214208,78.1056779 C66.9708472,78.1374849 66.9201845,78.1691505 66.8694335,78.2006742 Z M68.5043426,77.1143992 L68.4008546,76.9686085 C68.4492109,76.9343012 68.4974716,76.8998592 68.5456363,76.8652829 L68.6499353,77.0104949 C68.6015009,77.0452649 68.5529698,77.0798998 68.5043426,77.1143992 Z M70.0784292,75.9232698 L69.9661816,75.7841074 C70.0123287,75.7469049 70.0583724,75.709574 70.1043123,75.6721153 L70.2173321,75.8106516 C70.1711355,75.8483198 70.1248343,75.8858593 70.0784292,75.9232698 Z M71.5746407,74.6394839 L71.4540799,74.5074542 C71.4978604,74.4674977 71.54153,74.4274195 71.5850881,74.3872203 L71.7063804,74.5185785 C71.6625791,74.5590022 71.6186657,74.5993042 71.5746407,74.6394839 Z M72.9929067,73.2629792 L72.8644715,73.1385922 C72.9059689,73.0957667 72.9473465,73.0528253 72.9886039,73.0097688 L73.1177322,73.1334366 C73.0762445,73.1767335 73.0346358,73.2199146 72.9929067,73.2629792 Z M74.322315,71.8040875 L74.1864968,71.6878026 C74.2250378,71.6428111 74.2634536,71.5977129 74.3017438,71.5525084 L74.4382059,71.6680374 C74.3997018,71.7134945 74.3610713,71.7588447 74.322315,71.8040875 Z M75.5608155,70.2650498 L75.4181113,70.1573221 C75.4538613,70.1099896 75.4894794,70.0625578 75.5249649,70.0150274 L75.6682672,70.1219588 C75.6325831,70.1697552 75.5967657,70.2174524 75.5608155,70.2650498 Z M76.7024783,68.6526395 L76.5534139,68.5538945 C76.5862897,68.5042916 76.6190264,68.4545968 76.6516236,68.4048108 L76.8012388,68.5027195 C76.7684587,68.5527848 76.7355384,68.6027583 76.7024783,68.6526395 Z M77.7419878,66.9740519 L77.5871179,66.8846819 C77.6168564,66.8331749 77.6464504,66.7815842 77.6758995,66.7299106 L77.8312687,66.81841 C77.801654,66.8703743 77.7718935,66.9222552 77.7419878,66.9740519 Z M78.6774045,65.2314121 L78.517296,65.1518018 C78.5437691,65.0985883 78.5700929,65.0452994 78.5962671,64.9919359 L78.756821,65.0706446 C78.7304992,65.1243091 78.7040269,65.1778985 78.6774045,65.2314121 Z M79.4990917,63.4432313 L79.3343696,63.3736616 C79.3574771,63.3189781 79.3804313,63.2642276 79.403232,63.2094107 L79.5683434,63.2780518 C79.5454138,63.3331786 79.5223298,63.3882386 79.4990917,63.4432313 Z M80.2049173,61.6181215 L80.0362243,61.5588198 C80.0559111,61.5028471 80.0754412,61.4468154 80.0948145,61.3907255 L80.2638392,61.4490755 C80.2443562,61.505483 80.2247155,61.5618318 80.2049173,61.6181215 Z M80.8012153,59.7380696 L80.6291648,59.689354 C80.6453822,59.6321082 80.6614393,59.5748112 80.6773358,59.5174635 L80.8496592,59.5652058 C80.8336726,59.6228781 80.8175246,59.6804996 80.8012153,59.7380696 Z M81.279535,57.825046 L81.1047931,57.7870939 C81.1173994,57.7290817 81.1298439,57.6710264 81.1421265,57.6129283 L81.3170794,57.6498962 C81.3047274,57.7083226 81.2922125,57.766706 81.279535,57.825046 Z M81.6387054,55.8840062 L81.4619483,55.8569431 C81.4709455,55.7982106 81.4797794,55.7394423 81.48845,55.6806387 L81.6653561,55.7067097 C81.6566368,55.7658441 81.6477532,55.8249431 81.6387054,55.8840062 Z M81.8774306,53.9228811 L81.6993413,53.9067588 C81.7047014,53.847581 81.7098979,53.7883747 81.7149305,53.7291401 L81.8931068,53.7442701 C81.8880461,53.8038355 81.8828206,53.8633727 81.8774306,53.9228811 Z M81.9952519,51.9528395 L81.8165104,51.9476135 C81.8182478,51.8882226 81.8198218,51.8288098 81.8212324,51.7693756 L82,51.7736162 C81.9985816,51.8333789 81.9969989,51.8931202 81.9952519,51.9528395 Z M81.9932084,49.9796345 L81.8144781,49.9852317 C81.8126304,49.9262621 81.8106217,49.8673144 81.808452,49.808389 L81.9871489,49.8018127 C81.9893306,49.8610644 81.9913504,49.9203384 81.9932084,49.9796345 Z M81.8713496,48.0106812 L81.6932941,48.0271724 C81.6878505,47.9684282 81.6822455,47.9097126 81.6764793,47.851026 L81.8544407,47.8335496 C81.8602392,47.8925645 81.8658755,47.9516085 81.8713496,48.0106812 Z M81.6291385,46.0538828 L81.452435,46.0812931 C81.4432712,46.0222487 81.4339424,45.9632408 81.4244487,45.90427 L81.6009946,45.8758628 C81.6105418,45.9351657 81.6199231,45.9945059 81.6291385,46.0538828 Z M81.2662725,44.1141409 L81.0916052,44.1524345 C81.0788922,44.0944774 81.0660177,44.0365638 81.0529821,43.9786944 L81.2274311,43.9394186 C81.2405404,43.9976152 81.2534877,44.0558562 81.2662725,44.1141409 Z M80.7835029,42.1995825 L80.6115521,42.2486487 C80.5951941,42.1913527 80.5786754,42.1341084 80.5619963,42.0769164 L80.7336665,42.0268778 C80.7504401,42.0843936 80.7670523,42.141962 80.7835029,42.1995825 Z M80.1845422,40.3240595 L80.015964,40.3836862 C79.9960883,40.3275228 79.976055,40.271419 79.9558641,40.2153756 L80.1241022,40.154796 C80.1444073,40.2111567 80.1645541,40.267578 80.1845422,40.3240595 Z M79.4681898,38.4838256 L79.3036414,38.553805 C79.2804272,38.499248 79.2570604,38.4447582 79.2335413,38.3903364 L79.3976935,38.3194331 C79.4213455,38.3741625 79.4448444,38.4289602 79.4681898,38.4838256 Z M78.6395109,36.6926043 L78.479615,36.7726404 C78.4529937,36.7194842 78.4262233,36.6664039 78.3993043,36.6134 L78.5587474,36.532466 C78.5858182,36.5857688 78.6127395,36.6391484 78.6395109,36.6926043 Z M77.7011392,34.9553389 L77.5464978,35.0451034 C77.5167404,34.9938658 77.48684,34.9427117 77.4567968,34.8916416 L77.6109339,34.8010143 C77.6411459,34.8523715 77.6712145,34.9038132 77.7011392,34.9553389 Z M76.6591542,33.2820991 L76.5103316,33.3812077 C76.4774324,33.3318318 76.4443954,33.2825477 76.4112209,33.233356 L76.5594878,33.1334183 C76.5928483,33.1828858 76.6260706,33.2324463 76.6591542,33.2820991 Z M75.5191049,31.6797821 L75.3766327,31.7878165 C75.3406274,31.7403586 75.3044892,31.6930014 75.2682186,31.6457452 L75.4100841,31.5369159 C75.4465577,31.5844365 75.4828981,31.6320587 75.5191049,31.6797821 Z M74.2773547,30.143474 L74.1417863,30.2600499 C74.103131,30.2151204 74.0643508,30.1702981 74.0254461,30.1255837 L74.1603646,30.0082566 C74.1994866,30.0532208 74.2384835,30.0982934 74.2773547,30.143474 Z M72.944846,28.6874608 L72.8166776,28.8121226 C72.7752055,28.7695063 72.7336148,28.7270054 72.6919059,28.6846207 L72.8193777,28.559247 C72.8613195,28.6018684 72.9031424,28.6446065 72.944846,28.6874608 Z M71.5258444,27.3160062 L71.4055546,27.4482827 C71.3615619,27.4082974 71.3174578,27.3684347 71.2732431,27.3286952 L71.392794,27.1957509 C71.4372556,27.2357123 71.481606,27.2757976 71.5258444,27.3160062 Z M70.0246149,26.0333745 L69.9126664,26.1727776 C69.8662419,26.1355156 69.8197136,26.0983835 69.7730821,26.0613816 L69.88425,25.9213557 C69.9311423,25.9585644 69.9779308,25.9959042 70.0246149,26.0333745 Z M68.447879,24.8455657 L68.3447055,24.9915791 C68.2961239,24.9572692 68.2474467,24.9230953 68.1986744,24.8890577 L68.3010297,24.7424699 C68.3500753,24.7766982 68.3990253,24.8110636 68.447879,24.8455657 Z M66.7976621,23.7548092 L66.7036935,23.9069067 C66.65316,23.8757025 66.6025392,23.8446397 66.5518317,23.8137187 L66.6449473,23.6610978 C66.6959397,23.6921925 66.7468448,23.7234298 66.7976621,23.7548092 Z M65.086213,22.7696348 L65.0018165,22.9272421 C64.9492945,22.8991321 64.8966929,22.8711695 64.8440123,22.8433549 L64.9275199,22.685275 C64.9804973,22.7132464 65.0333952,22.7413664 65.086213,22.7696348 Z M63.3186374,21.8928241 L63.2441538,22.0553487 C63.1901205,22.0305987 63.1360162,22.0060001 63.0818413,21.9815534 L63.1554082,21.818612 C63.209889,21.8431969 63.2642989,21.8679343 63.3186374,21.8928241 Z M61.5113239,21.1314431 L61.4469997,21.2982474 C61.3915969,21.2768938 61.3361311,21.2556953 61.2806032,21.2346521 L61.3439857,21.0674879 C61.3998279,21.0886501 61.4556075,21.1099686 61.5113239,21.1314431 Z M59.6554661,20.4813602 L59.6015894,20.6518241 C59.5449039,20.6339175 59.4881635,20.6161695 59.4313687,20.5985805 L59.4842814,20.4278151 C59.5413978,20.4455037 59.5984596,20.4633522 59.6554661,20.4813602 Z M57.755523,19.9455076 L57.7123426,20.1189883 C57.6546845,20.1046443 57.5969795,20.0904613 57.5392279,20.0764395 L57.5814288,19.9027181 C57.6395071,19.9168192 57.6975387,19.9310825 57.755523,19.9455076 Z M55.8251025,19.5284392 L55.7927702,19.7042638 C55.7343496,19.6935265 55.6758897,19.6829517 55.617391,19.6725396 L55.6487341,19.496536 C55.7075627,19.5070069 55.7663524,19.5176413 55.8251025,19.5284392 Z M53.8753462,19.2320058 L53.8539244,19.4094895 C53.7948934,19.4023683 53.7358303,19.3954108 53.6767357,19.3886172 L53.6971637,19.2110164 C53.7565898,19.2178482 53.8159841,19.2248447 53.8753462,19.2320058 Z M51.9080811,19.0558082 L51.89759,19.2342714 C51.8382597,19.2307854 51.7789042,19.227463 51.7195241,19.2243043 L51.7290253,19.0457857 C51.7887354,19.048962 51.8484208,19.0523028 51.9080811,19.0558082 Z M49.9344288,19 L49.9347916,19.1787708 C49.8753621,19.1788913 49.8159517,19.1791747 49.7565608,19.1796208 L49.7552173,19.0008547 C49.814935,19.0004061 49.8746724,19.0001212 49.9344288,19 Z M47.96274,19.0637536 L47.9739542,19.2421729 C47.9145762,19.245903 47.8552239,19.2497971 47.7958978,19.2538549 L47.7836922,19.0755007 C47.8433487,19.0714203 47.9030314,19.0675045 47.96274,19.0637536 Z M45.9977331,19.2477646 L46.0198717,19.4251603 C45.9609559,19.4325091 45.9020727,19.4400209 45.8432225,19.4476958 L45.8200921,19.2704265 C45.8792727,19.2627086 45.9384866,19.2551545 45.9977331,19.2477646 Z M44.0474299,19.5524228 L44.080486,19.7281128 C44.0224353,19.7390294 43.9644242,19.7501065 43.9064531,19.761344 L43.8724147,19.5858415 C43.930713,19.5745406 43.9890516,19.5634009 44.0474299,19.5524228 Z M42.1198757,19.9771603 L42.1637658,20.1504629 C42.1061297,20.165052 42.0485413,20.1798021 41.9910012,20.194713 L41.9461333,20.0216608 C42.0039991,20.0066656 42.0619134,19.991832 42.1198757,19.9771603 Z M40.2260047,20.5195485 L40.2805575,20.6897974 C40.2238207,20.707968 40.1671398,20.7262978 40.1105153,20.7447864 L40.0549995,20.5748489 C40.1119447,20.5562556 40.1689466,20.5378221 40.2260047,20.5195485 Z M38.364949,21.1800249 L38.4299778,21.3465559 C38.3746234,21.36816 38.3193325,21.3899191 38.2641059,21.4118329 L38.1981387,21.2456712 C38.2536778,21.2236334 38.3092814,21.2017512 38.364949,21.1800249 Z M36.5504766,21.9538449 L36.6257036,22.1160269 C36.5715093,22.1411514 36.5173875,22.1664286 36.4633388,22.191858 L36.3871952,22.0301042 C36.441549,22.0045312 36.4959763,21.9791113 36.5504766,21.9538449 Z M34.7848058,22.8398758 L34.8699332,22.9970897 C34.8174392,23.025499 34.765026,23.054056 34.7126941,23.0827602 L34.6266814,22.9260285 C34.6793079,22.8971627 34.7320163,22.868445 34.7848058,22.8398758 Z M33.075794,23.8343119 L33.1704779,23.9859653 C33.1201841,24.0173495 33.0699781,24.0488741 33.0198605,24.0805385 L32.9243309,23.9294161 C32.97473,23.8975738 33.0252179,23.8658723 33.075794,23.8343119 Z M31.443264,24.9238747 L31.5470525,25.0694519 C31.4988764,25.1037808 31.4507957,25.1382436 31.402811,25.1728399 L31.2982147,25.0278418 C31.3464682,24.9930517 31.3948182,24.9583959 31.443264,24.9238747 Z M29.8717164,26.1181755 L29.9842498,26.2571071 C29.9378498,26.294671 29.8915549,26.3323649 29.8453656,26.3701882 L29.7320559,26.2318887 C29.7785034,26.1938539 29.8250571,26.1559493 29.8717164,26.1181755 Z M28.3759745,27.4070176 L28.496818,27.5387886 C28.4528524,27.5790872 28.4089993,27.6195086 28.3652594,27.6600523 L28.2436813,27.5289584 C28.2876654,27.4881883 28.3317634,27.4475412 28.3759745,27.4070176 Z M26.9627522,28.7843908 L27.0914421,28.9085145 C27.0501459,28.9513076 27.0089689,28.9942156 26.9679118,29.037238 L26.8385322,28.913833 C26.8798185,28.8705704 26.9212254,28.8274229 26.9627522,28.7843908 Z M25.6363145,30.2460311 L25.772371,30.3620372 C25.7337468,30.4073135 25.6952491,30.4526974 25.6568785,30.4981881 L25.5201766,30.3829428 C25.5587616,30.3371978 25.5974745,30.2915604 25.6363145,30.2460311 Z M24.4009271,31.7876748 L24.5438528,31.8951088 C24.5080709,31.9426866 24.4724223,31.9903641 24.4369074,32.0381407 L24.2933831,31.9315073 C24.3290968,31.8834632 24.364945,31.8355189 24.4009271,31.7876748 Z M23.2625152,33.4025449 L23.4117833,33.5009817 C23.3791267,33.5504758 23.3466084,33.6000609 23.3142287,33.6497363 L23.1644133,33.552134 C23.1969746,33.5021799 23.2296754,33.4523167 23.2625152,33.4025449 Z M22.2263882,35.0834433 L22.3814435,35.1724914 C22.3517662,35.22414 22.3222341,35.2758722 22.2928474,35.3276875 L22.1372938,35.2395125 C22.1668457,35.1874057 22.196544,35.1353825 22.2263882,35.0834433 Z M21.29449,36.8282493 L21.4547647,36.9075247 C21.4283933,36.9608131 21.4021714,37.0141766 21.3760994,37.0676146 L21.215381,36.9892423 C21.2416001,36.9355028 21.2679699,36.8818383 21.29449,36.8282493 Z M20.4764283,38.6184375 L20.6412966,38.6876602 C20.6183268,38.7423389 20.5955101,38.7970841 20.5728467,38.8518954 L20.4075914,38.7836013 C20.4303829,38.7284801 20.4533286,38.6734253 20.4764283,38.6184375 Z M19.7753355,40.4425051 L19.9441482,40.501465 C19.9245497,40.5575496 19.9051084,40.6136929 19.8858244,40.6698944 L19.7166814,40.6118881 C19.7360746,40.5553684 19.755626,40.4989072 19.7753355,40.4425051 Z M19.1818914,42.3271648 L19.3540457,42.3755127 C19.3379784,42.4326942 19.322071,42.4899264 19.3063237,42.5472088 L19.1338992,42.4998331 C19.1497357,42.4422263 19.1657331,42.3846701 19.1818914,42.3271648 Z M18.7075402,44.2417567 L18.8823633,44.279333 C18.8698623,44.3374634 18.8575235,44.3956368 18.8453472,44.4538528 L18.6703149,44.4172627 C18.68256,44.3587177 18.6949685,44.3002156 18.7075402,44.2417567 Z M18.3524394,46.1842198 L18.5292546,46.2109007 C18.5203784,46.2696923 18.5116658,46.3285196 18.5031168,46.3873819 L18.3261546,46.3616939 C18.3347517,46.3025005 18.3435133,46.2433423 18.3524394,46.1842198 Z M18.1181546,48.1434611 L18.2962769,48.1592143 C18.2910416,48.2183798 18.2859698,48.2775737 18.2810617,48.3367954 L18.1028544,48.322034 C18.1077899,48.2624815 18.11289,48.2029571 18.1181546,48.1434611 Z M18.0043749,50.1145869 L18.1831268,50.1194417 C18.1815133,50.1788199 18.180063,50.2382198 18.178776,50.2976409 L18,50.2937708 C18.0012941,50.2340215 18.0027524,50.1742933 18.0043749,50.1145869 Z M18.0103982,52.0845122 L18.189117,52.0785615 C18.1911128,52.1384701 18.1932748,52.1983557 18.195603,52.2582181 L18.0169201,52.2651639 C18.014579,52.2049698 18.012405,52.1447524 18.0103982,52.0845122 Z M18.1363974,54.0555829 L18.3144183,54.0387228 C18.3200673,54.0983376 18.3258825,54.1579227 18.3318638,54.2174776 L18.1539405,54.2353377 C18.1479257,54.1754495 18.142078,54.1155311 18.1363974,54.0555829 Z M18.3825655,56.0111536 L18.559212,55.9833788 C18.5684813,56.0423004 18.5779151,56.1011853 18.587513,56.160033 L18.4110259,56.1888028 C18.4013739,56.1296236 18.391887,56.070407 18.3825655,56.0111536 Z M18.7493078,57.9495286 L18.9238962,57.9108767 C18.9367054,57.968705 18.9496754,58.0264896 18.962806,58.08423 L18.7884376,58.123862 C18.7752328,58.0657951 18.7621894,58.0076838 18.7493078,57.9495286 Z M19.2367154,59.8655412 L19.408561,59.8161079 C19.4250104,59.8732612 19.4416197,59.9303627 19.4583888,59.9874118 L19.2868254,60.0378151 C19.2699613,59.9804429 19.2532579,59.9230181 19.2367154,59.8655412 Z M19.8395252,61.7393416 L20.0079766,61.6793576 C20.027933,61.7353712 20.0480465,61.7913251 20.0683166,61.8472185 L19.9002068,61.9081528 C19.8798219,61.851943 19.8595946,61.7956724 19.8395252,61.7393416 Z M20.5596255,63.5776992 L20.7240261,63.5073737 C20.7473093,63.5617745 20.7707443,63.616108 20.7943309,63.6703736 L20.6303276,63.7416204 C20.6066077,63.6870481 20.5830402,63.6324075 20.5596255,63.5776992 Z M21.3919304,65.3668965 L21.5516587,65.2865265 C21.5783368,65.339519 21.6051631,65.3924357 21.6321374,65.445276 L21.4728629,65.5265411 C21.4457365,65.4734029 21.4187589,65.4201878 21.3919304,65.3668965 Z M22.3338046,67.1019883 L22.4882592,67.0119029 C22.5180599,67.0629705 22.5480029,67.1139546 22.5780878,67.1648548 L22.4241382,67.2558002 C22.3938842,67.2046138 22.3637729,67.153343 22.3338046,67.1019883 Z M23.3791566,68.7729105 L23.5277741,68.6734947 C23.5607022,68.7226935 23.5937674,68.7718007 23.6269693,68.8208156 L23.4789079,68.9210574 C23.4455199,68.8717676 23.4122693,68.8223851 23.3791566,68.7729105 Z M24.5224319,70.3727688 L24.6646814,70.2644417 C24.7007002,70.311715 24.7368511,70.3588879 24.7731334,70.4059599 L24.6314907,70.5150789 C24.5950053,70.4677435 24.5586522,70.4203066 24.5224319,70.3727688 Z M25.7672854,71.9064612 L25.9026143,71.7896075 C25.9416222,71.8347591 25.9807564,71.8798017 26.0200165,71.9247348 L25.8853435,72.0423434 C25.8458641,71.9971593 25.8065112,71.9518651 25.7672854,71.9064612 Z M27.1027549,73.3597161 L27.2306676,73.234792 C27.2721171,73.2772109 27.3136845,73.3195147 27.3553691,73.3617028 L27.2281527,73.4873355 C27.1862353,73.4449118 27.1444359,73.4023719 27.1027549,73.3597161 Z M28.5245747,74.7282698 L28.644593,74.5957471 C28.6885423,74.6355287 28.732602,74.6751881 28.7767714,74.7147248 L28.6574913,74.847912 C28.6130752,74.8081544 28.5687694,74.7682736 28.5245747,74.7282698 Z M30.0284798,76.0078581 L30.1401416,75.8682254 C30.1864989,75.9052771 30.2329591,75.9421996 30.2795217,75.9789924 L30.1686394,76.1192445 C30.1218164,76.082246 30.0750964,76.045117 30.0284798,76.0078581 Z M31.6102057,77.1942158 L31.7130641,77.0479804 C31.7615472,77.0820644 31.8101251,77.1160132 31.8587971,77.1498264 L31.7567552,77.2966325 C31.7078105,77.2626299 31.6589605,77.2284908 31.6102057,77.1942158 Z M33.2603489,78.2799189 L33.3540021,78.1276271 C33.4047057,78.1587914 33.4554967,78.1898136 33.5063745,78.2206931 L33.4135774,78.3735077 C33.3624137,78.3424547 33.3113374,78.3112583 33.2603489,78.2799189 Z M34.9740329,79.2616439 L35.0581006,79.103861 C35.1104589,79.1317432 35.1628958,79.1594789 35.2154109,79.1870678 L35.1322295,79.3453195 C35.0794186,79.3175751 35.0266862,79.2896831 34.9740329,79.2616439 Z M36.7436933,80.1348808 L36.8178353,79.9722003 C36.8719042,79.9968295 36.9260439,80.0213071 36.9802537,80.0456329 L36.9070289,80.2087281 C36.8525129,80.184265 36.7980675,80.1596491 36.7436933,80.1348808 Z M38.5529315,80.8925891 L38.6169026,80.7256491 C38.6724688,80.7469308 38.7280977,80.7680567 38.7837889,80.7890264 L38.7207621,80.956325 C38.6647557,80.9352366 38.608812,80.9139912 38.5529315,80.8925891 Z M40.4105716,81.5388743 L40.4640851,81.3682961 C40.5207896,81.3860761 40.5775488,81.4036973 40.6343621,81.4211597 L40.5818129,81.5920373 C40.5246779,81.574476 40.4675973,81.556755 40.4105716,81.5388743 Z M42.3121561,82.070806 L42.3549643,81.8972331 C42.412606,81.9114418 42.4702943,81.9254897 42.5280287,81.9393767 L42.4861997,82.113188 C42.4281386,82.0992225 42.3701239,82.085095 42.3121561,82.070806 Z M44.2409956,82.4832919 L44.2729656,82.3074011 C44.3314418,82.3180242 44.389957,82.3284846 44.4485109,82.338782 L44.4175308,82.5148498 C44.3586468,82.5044943 44.2998015,82.4939749 44.2409956,82.4832919 Z M46.1951745,82.7761737 L46.2162115,82.5986439 C46.2751968,82.60563 46.334214,82.6124526 46.3932624,82.6191118 L46.3732181,82.7967562 C46.3138387,82.7900598 46.2544907,82.7831988 46.1951745,82.7761737 Z M48.1604533,82.9479916 L48.1705739,82.769507 C48.2299073,82.7728696 48.2892656,82.7760687 48.3486484,82.7791041 L48.3395174,82.957642 C48.2798048,82.9545897 48.2201166,82.9513729 48.1604533,82.9479916 Z" id="Oval-2-Copy" fill="#FFFFFF" fill-rule="nonzero"></path><path d="M50.2517483,99.2027972 C76.900453,99.2027972 98.5034965,77.4432099 98.5034965,50.6013986 C98.5034965,23.7595873 76.900453,2 50.2517483,2 C23.6030435,2 2,23.7595873 2,50.6013986" id="Oval-Copy-4" stroke="url(#linearGradient-3)" stroke-width="11" stroke-linecap="round" transform="translate(50.251748, 50.601399) rotate(-180.000000) translate(-50.251748, -50.601399) "></path></g></g></g></svg>